<?xml version="1.0" encoding="UTF-8" standalone="no"?>
<!DOCTYPE svg PUBLIC "-//W3C//DTD SVG 20010904//EN" "http://www.w3.org/TR/2001/REC-SVG-20010904/DTD/svg10.dtd">
<svg version="1.0" xmlns="http://www.w3.org/2000/svg" width="58.000000pt" height="246.000000pt" viewBox="0 0 58.000000 246.000000" preserveAspectRatio="xMidYMid meet">

<g transform="translate(0.000000,246.000000) scale(0.100000,-0.100000)" fill="#000000" stroke="none">
<path d="M151 2303 c0 -13 -5 -23 -10 -23 -11 0 -71 -86 -71 -101 0 -5 11 -21 24 -34 13 -13 27 -40 31 -61 4 -25 9 -33 15 -24 4 7 17 11 29 7 12 -3 21 -2 21 3 0 12 -28 20 -45 14 -12 -5 -15 2 -15 30 0 27 3 34 15 30 11 -5 12 -11 5 -24 -14 -26 -12 -34 3 -21 8 6 18 7 22 3 5 -4 5 1 2 11 -5 12 1 30 15 50 12 17 16 27 9 23 -10 -7 -11 -3 -6 13 9 29 -12 56 -31 40 -20 -17 -17 -36 8 -53 29 -20 6 -21 -32 -1 -35 18 -38 44 -10 70 29 26 67 13 79 -28 6 -21 10 -25 10 -12 1 26 -26 65 -44 65 -7 0 -16 10 -18 23 l-4 22 -2 -22z m39 -88 c0 -8 -4 -15 -10 -15 -5 0 -10 7 -10 15 0 8 5 15 10 15 6 0 10 -7 10 -15z m-67 -62 c-3 -7 -9 -13 -14 -13 -14 0 -31 40 -24 58 5 15 9 14 25 -7 10 -14 16 -31 13 -38z"/>
<path d="M130 2245 c-20 -24 -6 -28 15 -5 10 11 13 20 8 20 -6 0 -16 -7 -23 -15z"/>
<path d="M151 1924 c0 -12 -8 -24 -16 -27 -19 -8 -55 -84 -55 -118 0 -16 8 -34 18 -41 11 -7 22 -31 26 -52 5 -27 10 -35 16 -26 4 7 17 11 29 7 12 -3 21 -2 21 3 0 12 -28 20 -45 14 -12 -5 -15 2 -15 30 0 27 3 34 15 30 11 -5 12 -11 5 -24 -14 -26 -12 -34 3 -21 8 6 17 7 22 3 4 -4 4 3 1 15 -4 12 -2 24 4 28 6 3 8 11 4 16 -3 6 2 20 13 31 10 12 12 18 4 13 -10 -6 -12 -2 -6 14 9 29 -12 56 -31 40 -20 -17 -17 -36 8 -53 29 -20 6 -21 -32 -1 -35 18 -38 44 -10 70 29 26 67 13 79 -28 6 -21 10 -25 10 -12 1 26 -26 65 -44 65 -7 0 -16 10 -18 23 -4 21 -4 21 -6 1z m39 -89 c0 -8 -4 -15 -10 -15 -5 0 -10 7 -10 15 0 8 5 15 10 15 6 0 10 -7 10 -15z m-69 -40 c12 -14 26 -22 34 -18 8 3 15 1 15 -4 0 -5 -10 -9 -22 -10 -11 -1 -24 -7 -28 -14 -13 -20 -30 1 -30 37 0 40 6 42 31 9z"/>
<path d="M130 1865 c-20 -24 -6 -28 15 -5 10 11 13 20 8 20 -6 0 -16 -7 -23 -15z"/>
<path d="M161 1474 c0 -12 -7 -24 -15 -27 -7 -3 -25 -26 -41 -52 -23 -39 -25 -51 -16 -71 7 -15 16 -22 26 -18 10 4 15 0 15 -14 0 -36 10 -50 32 -44 11 3 24 -1 29 -9 7 -11 9 -11 9 2 0 19 -23 31 -45 23 -12 -5 -15 2 -15 30 0 27 3 34 15 30 11 -5 12 -11 5 -24 -14 -26 -12 -34 3 -21 8 6 18 7 22 3 5 -4 5 2 1 12 -4 13 1 27 16 44 13 14 17 22 9 17 -10 -6 -12 -2 -6 14 9 29 -12 56 -31 40 -20 -17 -17 -36 8 -53 29 -20 6 -21 -32 -1 -35 18 -38 44 -10 70 29 26 67 13 79 -28 6 -21 10 -25 10 -12 1 26 -26 65 -44 65 -7 0 -16 10 -18 23 -4 21 -4 21 -6 1z m39 -89 c0 -8 -4 -15 -10 -15 -5 0 -10 7 -10 15 0 8 5 15 10 15 6 0 10 -7 10 -15z m-70 -51 c0 -19 -28 -24 -34 -7 -4 9 -4 25 0 36 6 20 7 20 20 2 8 -10 14 -24 14 -31z"/>
<path d="M140 1415 c-20 -24 -6 -28 15 -5 10 11 13 20 8 20 -6 0 -16 -7 -23 -15z"/>
<path d="M161 1073 c0 -13 -5 -23 -10 -23 -5 0 -24 -21 -41 -47 -27 -39 -30 -50 -21 -70 6 -13 18 -26 26 -29 8 -4 15 -16 15 -29 0 -30 40 -58 57 -40 9 10 9 14 -2 19 -8 3 -22 3 -30 0 -12 -5 -15 2 -15 30 0 27 3 34 15 30 11 -5 12 -11 5 -24 -14 -26 -12 -34 3 -21 8 6 18 7 22 3 5 -4 5 1 2 11 -5 12 1 30 15 50 12 17 16 27 9 23 -10 -7 -11 -3 -6 13 9 29 -12 56 -31 40 -20 -17 -17 -36 8 -53 29 -20 6 -21 -32 -1 -35 18 -38 44 -10 70 29 26 67 13 79 -28 6 -21 10 -25 10 -12 1 26 -26 65 -44 65 -7 0 -16 10 -18 23 l-4 22 -2 -22z m39 -88 c0 -8 -4 -15 -10 -15 -5 0 -10 7 -10 15 0 8 5 15 10 15 6 0 10 -7 10 -15z m-67 -62 c-3 -7 -9 -13 -14 -13 -14 0 -31 40 -24 58 5 15 9 14 25 -7 10 -14 16 -31 13 -38z"/>
<path d="M140 1015 c-20 -24 -6 -28 15 -5 10 11 13 20 8 20 -6 0 -16 -7 -23 -15z"/>
<path d="M161 683 c0 -13 -5 -23 -10 -23 -5 0 -24 -21 -41 -46 -33 -49 -33 -69 0 -99 11 -10 20 -28 20 -40 0 -25 17 -41 40 -39 33 3 34 5 20 14 -8 5 -23 7 -32 4 -15 -4 -18 1 -18 30 0 27 3 34 15 30 11 -5 12 -11 5 -24 -14 -26 -12 -34 3 -21 8 6 18 7 22 3 5 -4 5 1 1 12 -3 10 -1 25 5 32 6 8 8 14 4 14 -5 0 0 10 11 22 10 12 13 18 5 13 -10 -6 -12 -2 -6 14 9 29 -12 56 -31 40 -20 -17 -17 -36 8 -53 29 -20 6 -21 -32 -1 -35 18 -38 44 -10 70 29 26 67 13 79 -28 6 -21 10 -25 10 -12 1 26 -26 65 -44 65 -7 0 -16 10 -18 23 l-4 22 -2 -22z m39 -88 c0 -8 -4 -15 -10 -15 -5 0 -10 7 -10 15 0 8 5 15 10 15 6 0 10 -7 10 -15z m-73 -33 c17 -23 18 -30 7 -40 -11 -10 -17 -7 -30 13 -9 14 -14 32 -10 40 7 20 9 19 33 -13z"/>
<path d="M140 625 c-20 -24 -6 -28 15 -5 10 11 13 20 8 20 -6 0 -16 -7 -23 -15z"/>
<path d="M151 253 c0 -13 -6 -23 -11 -23 -6 0 -19 -14 -30 -32 -19 -31 -19 -32 1 -59 18 -26 18 -28 2 -44 -15 -16 -17 -16 -25 0 -6 9 -7 24 -3 33 5 13 4 14 -6 5 -18 -17 4 -65 26 -57 11 4 15 0 15 -17 0 -13 7 -33 15 -43 8 -11 15 -14 15 -8 0 16 27 15 33 0 4 -8 6 -7 6 3 1 19 -22 31 -44 23 -12 -5 -15 2 -15 30 0 27 3 34 15 30 11 -5 12 -11 5 -24 -14 -26 -12 -34 3 -21 8 6 18 7 22 3 5 -4 5 1 2 11 -5 12 1 30 15 50 12 17 16 27 9 23 -10 -7 -11 -3 -6 13 9 29 -12 56 -31 40 -20 -17 -17 -36 8 -53 29 -20 6 -21 -32 -1 -35 18 -38 44 -10 70 29 26 67 13 79 -28 6 -21 10 -25 10 -12 1 26 -26 65 -44 65 -7 0 -16 10 -18 23 l-4 22 -2 -22z m39 -88 c0 -8 -4 -15 -10 -15 -5 0 -10 7 -10 15 0 8 5 15 10 15 6 0 10 -7 10 -15z"/>
<path d="M130 195 c-20 -24 -6 -28 15 -5 10 11 13 20 8 20 -6 0 -16 -7 -23 -15z"/>
</g>
</svg>