<?xml version="1.0" encoding="UTF-8"?>
<svg xmlns="http://www.w3.org/2000/svg" xmlns:xlink="http://www.w3.org/1999/xlink" width="599pt" height="599pt" viewBox="0 0 599 599" version="1.1">
<g id="surface1">
<rect x="0" y="0" width="599" height="599" style="fill:rgb(9.411765%,7.45098%,15.686275%);fill-opacity:1;stroke:none;"/>
<path style=" stroke:none;fill-rule:nonzero;fill:rgb(54.509804%,60.784314%,70.588235%);fill-opacity:1;" d="M 149.75 589.640625 L 159.109375 589.640625 L 159.109375 599 L 149.75 599 Z M 149.75 589.640625 "/>
<path style=" stroke:none;fill-rule:nonzero;fill:rgb(35.294118%,41.176471%,53.333333%);fill-opacity:1;" d="M 570.921875 552.203125 L 580.28125 552.203125 L 580.28125 561.5625 L 570.921875 561.5625 Z M 570.921875 552.203125 "/>
<path style=" stroke:none;fill-rule:nonzero;fill:rgb(14.901961%,16.862745%,26.666667%);fill-opacity:1;" d="M 561.5625 524.125 L 570.921875 524.125 L 570.921875 533.484375 L 561.5625 533.484375 Z M 561.5625 524.125 "/>
<path style=" stroke:none;fill-rule:nonzero;fill:rgb(14.901961%,16.862745%,26.666667%);fill-opacity:1;" d="M 514.765625 514.765625 L 524.125 514.765625 L 524.125 524.125 L 514.765625 524.125 Z M 514.765625 514.765625 "/>
<path style=" stroke:none;fill-rule:nonzero;fill:rgb(14.901961%,16.862745%,26.666667%);fill-opacity:1;" d="M 355.65625 505.40625 L 365.015625 505.40625 L 365.015625 514.765625 L 355.65625 514.765625 Z M 355.65625 505.40625 "/>
<path style=" stroke:none;fill-rule:nonzero;fill:rgb(54.509804%,60.784314%,70.588235%);fill-opacity:1;" d="M 102.953125 505.40625 L 112.3125 505.40625 L 112.3125 514.765625 L 102.953125 514.765625 Z M 102.953125 505.40625 "/>
<path style=" stroke:none;fill-rule:nonzero;fill:rgb(35.294118%,41.176471%,53.333333%);fill-opacity:1;" d="M 271.421875 477.328125 L 280.78125 477.328125 L 280.78125 486.6875 L 271.421875 486.6875 Z M 271.421875 477.328125 "/>
<path style=" stroke:none;fill-rule:nonzero;fill:rgb(35.294118%,41.176471%,53.333333%);fill-opacity:1;" d="M 552.203125 467.96875 L 561.5625 467.96875 L 561.5625 477.328125 L 552.203125 477.328125 Z M 552.203125 467.96875 "/>
<path style=" stroke:none;fill-rule:nonzero;fill:rgb(22.745098%,26.666667%,40%);fill-opacity:1;" d="M 496.046875 458.609375 L 505.40625 458.609375 L 505.40625 467.96875 L 496.046875 467.96875 Z M 496.046875 458.609375 "/>
<path style=" stroke:none;fill-rule:nonzero;fill:rgb(35.294118%,41.176471%,53.333333%);fill-opacity:1;" d="M 318.21875 439.890625 L 327.578125 439.890625 L 327.578125 449.25 L 318.21875 449.25 Z M 318.21875 439.890625 "/>
<path style=" stroke:none;fill-rule:nonzero;fill:rgb(14.901961%,16.862745%,26.666667%);fill-opacity:1;" d="M 18.71875 421.171875 L 28.078125 421.171875 L 28.078125 430.53125 L 18.71875 430.53125 Z M 18.71875 421.171875 "/>
<path style=" stroke:none;fill-rule:nonzero;fill:rgb(54.509804%,60.784314%,70.588235%);fill-opacity:1;" d="M 402.453125 411.8125 L 411.8125 411.8125 L 411.8125 421.171875 L 402.453125 421.171875 Z M 402.453125 411.8125 "/>
<path style=" stroke:none;fill-rule:nonzero;fill:rgb(35.294118%,41.176471%,53.333333%);fill-opacity:1;" d="M 271.421875 402.453125 L 280.78125 402.453125 L 280.78125 411.8125 L 271.421875 411.8125 Z M 271.421875 402.453125 "/>
<path style=" stroke:none;fill-rule:nonzero;fill:rgb(35.294118%,41.176471%,53.333333%);fill-opacity:1;" d="M 168.46875 402.453125 L 177.828125 402.453125 L 177.828125 411.8125 L 168.46875 411.8125 Z M 168.46875 402.453125 "/>
<path style=" stroke:none;fill-rule:nonzero;fill:rgb(35.294118%,41.176471%,53.333333%);fill-opacity:1;" d="M 477.328125 393.09375 L 486.6875 393.09375 L 486.6875 402.453125 L 477.328125 402.453125 Z M 477.328125 393.09375 "/>
<path style=" stroke:none;fill-rule:nonzero;fill:rgb(14.901961%,16.862745%,26.666667%);fill-opacity:1;" d="M 149.75 393.09375 L 159.109375 393.09375 L 159.109375 402.453125 L 149.75 402.453125 Z M 149.75 393.09375 "/>
<path style=" stroke:none;fill-rule:nonzero;fill:rgb(14.901961%,16.862745%,26.666667%);fill-opacity:1;" d="M 430.53125 374.375 L 439.890625 374.375 L 439.890625 383.734375 L 430.53125 383.734375 Z M 430.53125 374.375 "/>
<path style=" stroke:none;fill-rule:nonzero;fill:rgb(14.901961%,16.862745%,26.666667%);fill-opacity:1;" d="M 552.203125 355.65625 L 561.5625 355.65625 L 561.5625 365.015625 L 552.203125 365.015625 Z M 552.203125 355.65625 "/>
<path style=" stroke:none;fill-rule:nonzero;fill:rgb(91.372549%,89.803922%,88.235294%);fill-opacity:1;" d="M 411.8125 346.296875 L 421.171875 346.296875 L 421.171875 355.65625 L 411.8125 355.65625 Z M 411.8125 346.296875 "/>
<path style=" stroke:none;fill-rule:nonzero;fill:rgb(35.294118%,41.176471%,53.333333%);fill-opacity:1;" d="M 570.921875 336.9375 L 580.28125 336.9375 L 580.28125 346.296875 L 570.921875 346.296875 Z M 570.921875 336.9375 "/>
<path style=" stroke:none;fill-rule:nonzero;fill:rgb(14.901961%,16.862745%,26.666667%);fill-opacity:1;" d="M 346.296875 308.859375 L 355.65625 308.859375 L 355.65625 318.21875 L 346.296875 318.21875 Z M 346.296875 308.859375 "/>
<path style=" stroke:none;fill-rule:nonzero;fill:rgb(22.745098%,26.666667%,40%);fill-opacity:1;" d="M 308.859375 308.859375 L 318.21875 308.859375 L 318.21875 318.21875 L 308.859375 318.21875 Z M 308.859375 308.859375 "/>
<path style=" stroke:none;fill-rule:nonzero;fill:rgb(14.901961%,16.862745%,26.666667%);fill-opacity:1;" d="M 149.75 290.140625 L 159.109375 290.140625 L 159.109375 299.5 L 149.75 299.5 Z M 149.75 290.140625 "/>
<path style=" stroke:none;fill-rule:nonzero;fill:rgb(75.294118%,79.607843%,86.27451%);fill-opacity:1;" d="M 102.953125 290.140625 L 112.3125 290.140625 L 112.3125 299.5 L 102.953125 299.5 Z M 102.953125 290.140625 "/>
<path style=" stroke:none;fill-rule:nonzero;fill:rgb(14.901961%,16.862745%,26.666667%);fill-opacity:1;" d="M 355.65625 262.0625 L 365.015625 262.0625 L 365.015625 271.421875 L 355.65625 271.421875 Z M 355.65625 262.0625 "/>
<path style=" stroke:none;fill-rule:nonzero;fill:rgb(22.745098%,26.666667%,40%);fill-opacity:1;" d="M 458.609375 252.703125 L 467.96875 252.703125 L 467.96875 262.0625 L 458.609375 262.0625 Z M 458.609375 252.703125 "/>
<path style=" stroke:none;fill-rule:nonzero;fill:rgb(54.509804%,60.784314%,70.588235%);fill-opacity:1;" d="M 430.53125 243.34375 L 439.890625 243.34375 L 439.890625 252.703125 L 430.53125 252.703125 Z M 430.53125 243.34375 "/>
<path style=" stroke:none;fill-rule:nonzero;fill:rgb(35.294118%,41.176471%,53.333333%);fill-opacity:1;" d="M 177.828125 243.34375 L 187.1875 243.34375 L 187.1875 252.703125 L 177.828125 252.703125 Z M 177.828125 243.34375 "/>
<path style=" stroke:none;fill-rule:nonzero;fill:rgb(54.509804%,60.784314%,70.588235%);fill-opacity:1;" d="M 336.9375 224.625 L 346.296875 224.625 L 346.296875 233.984375 L 336.9375 233.984375 Z M 336.9375 224.625 "/>
<path style=" stroke:none;fill-rule:nonzero;fill:rgb(14.901961%,16.862745%,26.666667%);fill-opacity:1;" d="M 542.84375 215.265625 L 552.203125 215.265625 L 552.203125 224.625 L 542.84375 224.625 Z M 542.84375 215.265625 "/>
<path style=" stroke:none;fill-rule:nonzero;fill:rgb(54.509804%,60.784314%,70.588235%);fill-opacity:1;" d="M 486.6875 205.90625 L 496.046875 205.90625 L 496.046875 215.265625 L 486.6875 215.265625 Z M 486.6875 205.90625 "/>
<path style=" stroke:none;fill-rule:nonzero;fill:rgb(22.745098%,26.666667%,40%);fill-opacity:1;" d="M 28.078125 149.75 L 37.4375 149.75 L 37.4375 159.109375 L 28.078125 159.109375 Z M 28.078125 149.75 "/>
<path style=" stroke:none;fill-rule:nonzero;fill:rgb(22.745098%,26.666667%,40%);fill-opacity:1;" d="M 477.328125 140.390625 L 486.6875 140.390625 L 486.6875 149.75 L 477.328125 149.75 Z M 477.328125 140.390625 "/>
<path style=" stroke:none;fill-rule:nonzero;fill:rgb(14.901961%,16.862745%,26.666667%);fill-opacity:1;" d="M 299.5 140.390625 L 308.859375 140.390625 L 308.859375 149.75 L 299.5 149.75 Z M 299.5 140.390625 "/>
<path style=" stroke:none;fill-rule:nonzero;fill:rgb(54.509804%,60.784314%,70.588235%);fill-opacity:1;" d="M 9.359375 131.03125 L 18.71875 131.03125 L 18.71875 140.390625 L 9.359375 140.390625 Z M 9.359375 131.03125 "/>
<path style=" stroke:none;fill-rule:nonzero;fill:rgb(14.901961%,16.862745%,26.666667%);fill-opacity:1;" d="M 561.5625 121.671875 L 570.921875 121.671875 L 570.921875 131.03125 L 561.5625 131.03125 Z M 561.5625 121.671875 "/>
<path style=" stroke:none;fill-rule:nonzero;fill:rgb(14.901961%,16.862745%,26.666667%);fill-opacity:1;" d="M 336.9375 121.671875 L 346.296875 121.671875 L 346.296875 131.03125 L 336.9375 131.03125 Z M 336.9375 121.671875 "/>
<path style=" stroke:none;fill-rule:nonzero;fill:rgb(54.509804%,60.784314%,70.588235%);fill-opacity:1;" d="M 224.625 121.671875 L 233.984375 121.671875 L 233.984375 131.03125 L 224.625 131.03125 Z M 224.625 121.671875 "/>
<path style=" stroke:none;fill-rule:nonzero;fill:rgb(35.294118%,41.176471%,53.333333%);fill-opacity:1;" d="M 308.859375 112.3125 L 318.21875 112.3125 L 318.21875 121.671875 L 308.859375 121.671875 Z M 308.859375 112.3125 "/>
<path style=" stroke:none;fill-rule:nonzero;fill:rgb(54.509804%,60.784314%,70.588235%);fill-opacity:1;" d="M 421.171875 102.953125 L 430.53125 102.953125 L 430.53125 112.3125 L 421.171875 112.3125 Z M 421.171875 102.953125 "/>
<path style=" stroke:none;fill-rule:nonzero;fill:rgb(75.294118%,79.607843%,86.27451%);fill-opacity:1;" d="M 393.09375 46.796875 L 402.453125 46.796875 L 402.453125 56.15625 L 393.09375 56.15625 Z M 393.09375 46.796875 "/>
<path style=" stroke:none;fill-rule:nonzero;fill:rgb(22.745098%,26.666667%,40%);fill-opacity:1;" d="M 355.65625 46.796875 L 365.015625 46.796875 L 365.015625 56.15625 L 355.65625 56.15625 Z M 355.65625 46.796875 "/>
<path style=" stroke:none;fill-rule:nonzero;fill:rgb(35.294118%,41.176471%,53.333333%);fill-opacity:1;" d="M 168.46875 46.796875 L 177.828125 46.796875 L 177.828125 56.15625 L 168.46875 56.15625 Z M 168.46875 46.796875 "/>
<path style=" stroke:none;fill-rule:nonzero;fill:rgb(14.901961%,16.862745%,26.666667%);fill-opacity:1;" d="M 411.8125 9.359375 L 421.171875 9.359375 L 421.171875 18.71875 L 411.8125 18.71875 Z M 411.8125 9.359375 "/>
<path style=" stroke:none;fill-rule:nonzero;fill:rgb(22.745098%,26.666667%,40%);fill-opacity:1;" d="M 121.671875 9.359375 L 131.03125 9.359375 L 131.03125 18.71875 L 121.671875 18.71875 Z M 121.671875 9.359375 "/>
<path style=" stroke:none;fill-rule:nonzero;fill:rgb(75.294118%,79.607843%,86.27451%);fill-opacity:1;" d="M 28.078125 9.359375 L 37.4375 9.359375 L 37.4375 18.71875 L 28.078125 18.71875 Z M 28.078125 9.359375 "/>
</g>
</svg>