<?xml version="1.0" encoding="UTF-8"?>
<svg xmlns="http://www.w3.org/2000/svg" xmlns:xlink="http://www.w3.org/1999/xlink" width="600pt" height="600pt" viewBox="0 0 600 600" version="1.1">
<g id="surface1">
<rect x="0" y="0" width="600" height="600" style="fill:rgb(9.411765%,7.843137%,14.509804%);fill-opacity:1;stroke:none;"/>
<path style=" stroke:none;fill-rule:nonzero;fill:rgb(12.941176%,41.960784%,47.843137%);fill-opacity:1;" d="M 309.375 581.25 L 318.75 581.25 L 318.75 590.625 L 309.375 590.625 Z M 309.375 581.25 "/>
<path style=" stroke:none;fill-rule:nonzero;fill:rgb(46.666667%,41.960784%,23.921569%);fill-opacity:1;" d="M 93.75 581.25 L 103.125 581.25 L 103.125 590.625 L 93.75 590.625 Z M 93.75 581.25 "/>
<path style=" stroke:none;fill-rule:nonzero;fill:rgb(0%,60%,85.882353%);fill-opacity:1;" d="M 487.5 571.875 L 496.875 571.875 L 496.875 581.25 L 487.5 581.25 Z M 487.5 571.875 "/>
<path style=" stroke:none;fill-rule:nonzero;fill:rgb(4.313725%,43.529412%,68.235294%);fill-opacity:1;" d="M 337.5 571.875 L 346.875 571.875 L 346.875 581.25 L 337.5 581.25 Z M 337.5 571.875 "/>
<path style=" stroke:none;fill-rule:nonzero;fill:rgb(0%,60%,85.882353%);fill-opacity:1;" d="M 553.125 562.5 L 562.5 562.5 L 562.5 571.875 L 553.125 571.875 Z M 553.125 562.5 "/>
<path style=" stroke:none;fill-rule:nonzero;fill:rgb(0%,60%,85.882353%);fill-opacity:1;" d="M 496.875 562.5 L 506.25 562.5 L 506.25 571.875 L 496.875 571.875 Z M 496.875 562.5 "/>
<path style=" stroke:none;fill-rule:nonzero;fill:rgb(17.254902%,90.980392%,96.078431%);fill-opacity:1;" d="M 487.5 562.5 L 496.875 562.5 L 496.875 571.875 L 487.5 571.875 Z M 487.5 562.5 "/>
<path style=" stroke:none;fill-rule:nonzero;fill:rgb(0%,60%,85.882353%);fill-opacity:1;" d="M 478.125 562.5 L 487.5 562.5 L 487.5 571.875 L 478.125 571.875 Z M 478.125 562.5 "/>
<path style=" stroke:none;fill-rule:nonzero;fill:rgb(0%,60%,85.882353%);fill-opacity:1;" d="M 346.875 562.5 L 356.25 562.5 L 356.25 571.875 L 346.875 571.875 Z M 346.875 562.5 "/>
<path style=" stroke:none;fill-rule:nonzero;fill:rgb(17.254902%,90.980392%,96.078431%);fill-opacity:1;" d="M 337.5 562.5 L 346.875 562.5 L 346.875 571.875 L 337.5 571.875 Z M 337.5 562.5 "/>
<path style=" stroke:none;fill-rule:nonzero;fill:rgb(0%,60%,85.882353%);fill-opacity:1;" d="M 328.125 562.5 L 337.5 562.5 L 337.5 571.875 L 328.125 571.875 Z M 328.125 562.5 "/>
<path style=" stroke:none;fill-rule:nonzero;fill:rgb(17.254902%,90.980392%,96.078431%);fill-opacity:1;" d="M 262.5 562.5 L 271.875 562.5 L 271.875 571.875 L 262.5 571.875 Z M 262.5 562.5 "/>
<path style=" stroke:none;fill-rule:nonzero;fill:rgb(0%,60%,85.882353%);fill-opacity:1;" d="M 112.5 562.5 L 121.875 562.5 L 121.875 571.875 L 112.5 571.875 Z M 112.5 562.5 "/>
<path style=" stroke:none;fill-rule:nonzero;fill:rgb(0%,60%,85.882353%);fill-opacity:1;" d="M 487.5 553.125 L 496.875 553.125 L 496.875 562.5 L 487.5 562.5 Z M 487.5 553.125 "/>
<path style=" stroke:none;fill-rule:nonzero;fill:rgb(99.607843%,90.588235%,38.039216%);fill-opacity:1;" d="M 440.625 553.125 L 450 553.125 L 450 562.5 L 440.625 562.5 Z M 440.625 553.125 "/>
<path style=" stroke:none;fill-rule:nonzero;fill:rgb(4.313725%,43.529412%,68.235294%);fill-opacity:1;" d="M 356.25 553.125 L 365.625 553.125 L 365.625 562.5 L 356.25 562.5 Z M 356.25 553.125 "/>
<path style=" stroke:none;fill-rule:nonzero;fill:rgb(17.254902%,90.980392%,96.078431%);fill-opacity:1;" d="M 346.875 553.125 L 356.25 553.125 L 356.25 562.5 L 346.875 562.5 Z M 346.875 553.125 "/>
<path style=" stroke:none;fill-rule:nonzero;fill:rgb(91.372549%,89.803922%,88.235294%);fill-opacity:1;" d="M 337.5 553.125 L 346.875 553.125 L 346.875 562.5 L 337.5 562.5 Z M 337.5 553.125 "/>
<path style=" stroke:none;fill-rule:nonzero;fill:rgb(17.254902%,90.980392%,96.078431%);fill-opacity:1;" d="M 328.125 553.125 L 337.5 553.125 L 337.5 562.5 L 328.125 562.5 Z M 328.125 553.125 "/>
<path style=" stroke:none;fill-rule:nonzero;fill:rgb(4.313725%,43.529412%,68.235294%);fill-opacity:1;" d="M 318.75 553.125 L 328.125 553.125 L 328.125 562.5 L 318.75 562.5 Z M 318.75 553.125 "/>
<path style=" stroke:none;fill-rule:nonzero;fill:rgb(34.901961%,17.647059%,30.980392%);fill-opacity:1;" d="M 187.5 553.125 L 196.875 553.125 L 196.875 562.5 L 187.5 562.5 Z M 187.5 553.125 "/>
<path style=" stroke:none;fill-rule:nonzero;fill:rgb(0%,60%,85.882353%);fill-opacity:1;" d="M 121.875 553.125 L 131.25 553.125 L 131.25 562.5 L 121.875 562.5 Z M 121.875 553.125 "/>
<path style=" stroke:none;fill-rule:nonzero;fill:rgb(17.254902%,90.980392%,96.078431%);fill-opacity:1;" d="M 112.5 553.125 L 121.875 553.125 L 121.875 562.5 L 112.5 562.5 Z M 112.5 553.125 "/>
<path style=" stroke:none;fill-rule:nonzero;fill:rgb(0%,60%,85.882353%);fill-opacity:1;" d="M 103.125 553.125 L 112.5 553.125 L 112.5 562.5 L 103.125 562.5 Z M 103.125 553.125 "/>
<path style=" stroke:none;fill-rule:nonzero;fill:rgb(0%,60%,85.882353%);fill-opacity:1;" d="M 346.875 543.75 L 356.25 543.75 L 356.25 553.125 L 346.875 553.125 Z M 346.875 543.75 "/>
<path style=" stroke:none;fill-rule:nonzero;fill:rgb(17.254902%,90.980392%,96.078431%);fill-opacity:1;" d="M 337.5 543.75 L 346.875 543.75 L 346.875 553.125 L 337.5 553.125 Z M 337.5 543.75 "/>
<path style=" stroke:none;fill-rule:nonzero;fill:rgb(0%,60%,85.882353%);fill-opacity:1;" d="M 328.125 543.75 L 337.5 543.75 L 337.5 553.125 L 328.125 553.125 Z M 328.125 543.75 "/>
<path style=" stroke:none;fill-rule:nonzero;fill:rgb(0%,60%,85.882353%);fill-opacity:1;" d="M 112.5 543.75 L 121.875 543.75 L 121.875 553.125 L 112.5 553.125 Z M 112.5 543.75 "/>
<path style=" stroke:none;fill-rule:nonzero;fill:rgb(17.254902%,90.980392%,96.078431%);fill-opacity:1;" d="M 543.75 534.375 L 553.125 534.375 L 553.125 543.75 L 543.75 543.75 Z M 543.75 534.375 "/>
<path style=" stroke:none;fill-rule:nonzero;fill:rgb(4.313725%,43.529412%,68.235294%);fill-opacity:1;" d="M 337.5 534.375 L 346.875 534.375 L 346.875 543.75 L 337.5 543.75 Z M 337.5 534.375 "/>
<path style=" stroke:none;fill-rule:nonzero;fill:rgb(12.941176%,41.960784%,47.843137%);fill-opacity:1;" d="M 581.25 525 L 590.625 525 L 590.625 534.375 L 581.25 534.375 Z M 581.25 525 "/>
<path style=" stroke:none;fill-rule:nonzero;fill:rgb(46.666667%,41.960784%,23.921569%);fill-opacity:1;" d="M 234.375 525 L 243.75 525 L 243.75 534.375 L 234.375 534.375 Z M 234.375 525 "/>
<path style=" stroke:none;fill-rule:nonzero;fill:rgb(46.666667%,41.960784%,23.921569%);fill-opacity:1;" d="M 431.25 506.25 L 440.625 506.25 L 440.625 515.625 L 431.25 515.625 Z M 431.25 506.25 "/>
<path style=" stroke:none;fill-rule:nonzero;fill:rgb(0%,60%,85.882353%);fill-opacity:1;" d="M 403.125 506.25 L 412.5 506.25 L 412.5 515.625 L 403.125 515.625 Z M 403.125 506.25 "/>
<path style=" stroke:none;fill-rule:nonzero;fill:rgb(99.607843%,90.588235%,38.039216%);fill-opacity:1;" d="M 318.75 506.25 L 328.125 506.25 L 328.125 515.625 L 318.75 515.625 Z M 318.75 506.25 "/>
<path style=" stroke:none;fill-rule:nonzero;fill:rgb(34.901961%,17.647059%,30.980392%);fill-opacity:1;" d="M 112.5 506.25 L 121.875 506.25 L 121.875 515.625 L 112.5 515.625 Z M 112.5 506.25 "/>
<path style=" stroke:none;fill-rule:nonzero;fill:rgb(0%,60%,85.882353%);fill-opacity:1;" d="M 412.5 496.875 L 421.875 496.875 L 421.875 506.25 L 412.5 506.25 Z M 412.5 496.875 "/>
<path style=" stroke:none;fill-rule:nonzero;fill:rgb(17.254902%,90.980392%,96.078431%);fill-opacity:1;" d="M 403.125 496.875 L 412.5 496.875 L 412.5 506.25 L 403.125 506.25 Z M 403.125 496.875 "/>
<path style=" stroke:none;fill-rule:nonzero;fill:rgb(0%,60%,85.882353%);fill-opacity:1;" d="M 393.75 496.875 L 403.125 496.875 L 403.125 506.25 L 393.75 506.25 Z M 393.75 496.875 "/>
<path style=" stroke:none;fill-rule:nonzero;fill:rgb(17.254902%,90.980392%,96.078431%);fill-opacity:1;" d="M 506.25 487.5 L 515.625 487.5 L 515.625 496.875 L 506.25 496.875 Z M 506.25 487.5 "/>
<path style=" stroke:none;fill-rule:nonzero;fill:rgb(0%,60%,85.882353%);fill-opacity:1;" d="M 403.125 487.5 L 412.5 487.5 L 412.5 496.875 L 403.125 496.875 Z M 403.125 487.5 "/>
<path style=" stroke:none;fill-rule:nonzero;fill:rgb(12.941176%,41.960784%,47.843137%);fill-opacity:1;" d="M 84.375 487.5 L 93.75 487.5 L 93.75 496.875 L 84.375 496.875 Z M 84.375 487.5 "/>
<path style=" stroke:none;fill-rule:nonzero;fill:rgb(34.901961%,17.647059%,30.980392%);fill-opacity:1;" d="M 468.75 478.125 L 478.125 478.125 L 478.125 487.5 L 468.75 487.5 Z M 468.75 478.125 "/>
<path style=" stroke:none;fill-rule:nonzero;fill:rgb(12.941176%,41.960784%,47.843137%);fill-opacity:1;" d="M 365.625 478.125 L 375 478.125 L 375 487.5 L 365.625 487.5 Z M 365.625 478.125 "/>
<path style=" stroke:none;fill-rule:nonzero;fill:rgb(4.313725%,43.529412%,68.235294%);fill-opacity:1;" d="M 262.5 478.125 L 271.875 478.125 L 271.875 487.5 L 262.5 487.5 Z M 262.5 478.125 "/>
<path style=" stroke:none;fill-rule:nonzero;fill:rgb(0%,60%,85.882353%);fill-opacity:1;" d="M 271.875 468.75 L 281.25 468.75 L 281.25 478.125 L 271.875 478.125 Z M 271.875 468.75 "/>
<path style=" stroke:none;fill-rule:nonzero;fill:rgb(17.254902%,90.980392%,96.078431%);fill-opacity:1;" d="M 262.5 468.75 L 271.875 468.75 L 271.875 478.125 L 262.5 478.125 Z M 262.5 468.75 "/>
<path style=" stroke:none;fill-rule:nonzero;fill:rgb(0%,60%,85.882353%);fill-opacity:1;" d="M 253.125 468.75 L 262.5 468.75 L 262.5 478.125 L 253.125 478.125 Z M 253.125 468.75 "/>
<path style=" stroke:none;fill-rule:nonzero;fill:rgb(34.901961%,17.647059%,30.980392%);fill-opacity:1;" d="M 337.5 459.375 L 346.875 459.375 L 346.875 468.75 L 337.5 468.75 Z M 337.5 459.375 "/>
<path style=" stroke:none;fill-rule:nonzero;fill:rgb(4.313725%,43.529412%,68.235294%);fill-opacity:1;" d="M 281.25 459.375 L 290.625 459.375 L 290.625 468.75 L 281.25 468.75 Z M 281.25 459.375 "/>
<path style=" stroke:none;fill-rule:nonzero;fill:rgb(17.254902%,90.980392%,96.078431%);fill-opacity:1;" d="M 271.875 459.375 L 281.25 459.375 L 281.25 468.75 L 271.875 468.75 Z M 271.875 459.375 "/>
<path style=" stroke:none;fill-rule:nonzero;fill:rgb(91.372549%,89.803922%,88.235294%);fill-opacity:1;" d="M 262.5 459.375 L 271.875 459.375 L 271.875 468.75 L 262.5 468.75 Z M 262.5 459.375 "/>
<path style=" stroke:none;fill-rule:nonzero;fill:rgb(17.254902%,90.980392%,96.078431%);fill-opacity:1;" d="M 253.125 459.375 L 262.5 459.375 L 262.5 468.75 L 253.125 468.75 Z M 253.125 459.375 "/>
<path style=" stroke:none;fill-rule:nonzero;fill:rgb(4.313725%,43.529412%,68.235294%);fill-opacity:1;" d="M 243.75 459.375 L 253.125 459.375 L 253.125 468.75 L 243.75 468.75 Z M 243.75 459.375 "/>
<path style=" stroke:none;fill-rule:nonzero;fill:rgb(99.607843%,90.588235%,38.039216%);fill-opacity:1;" d="M 131.25 459.375 L 140.625 459.375 L 140.625 468.75 L 131.25 468.75 Z M 131.25 459.375 "/>
<path style=" stroke:none;fill-rule:nonzero;fill:rgb(12.941176%,41.960784%,47.843137%);fill-opacity:1;" d="M 9.375 459.375 L 18.75 459.375 L 18.75 468.75 L 9.375 468.75 Z M 9.375 459.375 "/>
<path style=" stroke:none;fill-rule:nonzero;fill:rgb(46.666667%,41.960784%,23.921569%);fill-opacity:1;" d="M 571.875 450 L 581.25 450 L 581.25 459.375 L 571.875 459.375 Z M 571.875 450 "/>
<path style=" stroke:none;fill-rule:nonzero;fill:rgb(0%,60%,85.882353%);fill-opacity:1;" d="M 271.875 450 L 281.25 450 L 281.25 459.375 L 271.875 459.375 Z M 271.875 450 "/>
<path style=" stroke:none;fill-rule:nonzero;fill:rgb(17.254902%,90.980392%,96.078431%);fill-opacity:1;" d="M 262.5 450 L 271.875 450 L 271.875 459.375 L 262.5 459.375 Z M 262.5 450 "/>
<path style=" stroke:none;fill-rule:nonzero;fill:rgb(0%,60%,85.882353%);fill-opacity:1;" d="M 253.125 450 L 262.5 450 L 262.5 459.375 L 253.125 459.375 Z M 253.125 450 "/>
<path style=" stroke:none;fill-rule:nonzero;fill:rgb(4.313725%,43.529412%,68.235294%);fill-opacity:1;" d="M 262.5 440.625 L 271.875 440.625 L 271.875 450 L 262.5 450 Z M 262.5 440.625 "/>
<path style=" stroke:none;fill-rule:nonzero;fill:rgb(46.666667%,41.960784%,23.921569%);fill-opacity:1;" d="M 215.625 440.625 L 225 440.625 L 225 450 L 215.625 450 Z M 215.625 440.625 "/>
<path style=" stroke:none;fill-rule:nonzero;fill:rgb(74.509804%,29.019608%,18.431373%);fill-opacity:1;" d="M 112.5 431.25 L 121.875 431.25 L 121.875 440.625 L 112.5 440.625 Z M 112.5 431.25 "/>
<path style=" stroke:none;fill-rule:nonzero;fill:rgb(12.941176%,41.960784%,47.843137%);fill-opacity:1;" d="M 487.5 421.875 L 496.875 421.875 L 496.875 431.25 L 487.5 431.25 Z M 487.5 421.875 "/>
<path style=" stroke:none;fill-rule:nonzero;fill:rgb(74.509804%,29.019608%,18.431373%);fill-opacity:1;" d="M 121.875 421.875 L 131.25 421.875 L 131.25 431.25 L 121.875 431.25 Z M 121.875 421.875 "/>
<path style=" stroke:none;fill-rule:nonzero;fill:rgb(99.607843%,68.235294%,20.392157%);fill-opacity:1;" d="M 112.5 421.875 L 121.875 421.875 L 121.875 431.25 L 112.5 431.25 Z M 112.5 421.875 "/>
<path style=" stroke:none;fill-rule:nonzero;fill:rgb(74.509804%,29.019608%,18.431373%);fill-opacity:1;" d="M 103.125 421.875 L 112.5 421.875 L 112.5 431.25 L 103.125 431.25 Z M 103.125 421.875 "/>
<path style=" stroke:none;fill-rule:nonzero;fill:rgb(0%,60%,85.882353%);fill-opacity:1;" d="M 581.25 412.5 L 590.625 412.5 L 590.625 421.875 L 581.25 421.875 Z M 581.25 412.5 "/>
<path style=" stroke:none;fill-rule:nonzero;fill:rgb(34.901961%,17.647059%,30.980392%);fill-opacity:1;" d="M 496.875 412.5 L 506.25 412.5 L 506.25 421.875 L 496.875 421.875 Z M 496.875 412.5 "/>
<path style=" stroke:none;fill-rule:nonzero;fill:rgb(34.901961%,17.647059%,30.980392%);fill-opacity:1;" d="M 262.5 412.5 L 271.875 412.5 L 271.875 421.875 L 262.5 421.875 Z M 262.5 412.5 "/>
<path style=" stroke:none;fill-rule:nonzero;fill:rgb(74.509804%,29.019608%,18.431373%);fill-opacity:1;" d="M 131.25 412.5 L 140.625 412.5 L 140.625 421.875 L 131.25 421.875 Z M 131.25 412.5 "/>
<path style=" stroke:none;fill-rule:nonzero;fill:rgb(99.607843%,68.235294%,20.392157%);fill-opacity:1;" d="M 121.875 412.5 L 131.25 412.5 L 131.25 421.875 L 121.875 421.875 Z M 121.875 412.5 "/>
<path style=" stroke:none;fill-rule:nonzero;fill:rgb(99.607843%,90.588235%,38.039216%);fill-opacity:1;" d="M 112.5 412.5 L 121.875 412.5 L 121.875 421.875 L 112.5 421.875 Z M 112.5 412.5 "/>
<path style=" stroke:none;fill-rule:nonzero;fill:rgb(99.607843%,68.235294%,20.392157%);fill-opacity:1;" d="M 103.125 412.5 L 112.5 412.5 L 112.5 421.875 L 103.125 421.875 Z M 103.125 412.5 "/>
<path style=" stroke:none;fill-rule:nonzero;fill:rgb(74.509804%,29.019608%,18.431373%);fill-opacity:1;" d="M 93.75 412.5 L 103.125 412.5 L 103.125 421.875 L 93.75 421.875 Z M 93.75 412.5 "/>
<path style=" stroke:none;fill-rule:nonzero;fill:rgb(46.666667%,41.960784%,23.921569%);fill-opacity:1;" d="M 375 403.125 L 384.375 403.125 L 384.375 412.5 L 375 412.5 Z M 375 403.125 "/>
<path style=" stroke:none;fill-rule:nonzero;fill:rgb(74.509804%,29.019608%,18.431373%);fill-opacity:1;" d="M 121.875 403.125 L 131.25 403.125 L 131.25 412.5 L 121.875 412.5 Z M 121.875 403.125 "/>
<path style=" stroke:none;fill-rule:nonzero;fill:rgb(99.607843%,68.235294%,20.392157%);fill-opacity:1;" d="M 112.5 403.125 L 121.875 403.125 L 121.875 412.5 L 112.5 412.5 Z M 112.5 403.125 "/>
<path style=" stroke:none;fill-rule:nonzero;fill:rgb(74.509804%,29.019608%,18.431373%);fill-opacity:1;" d="M 103.125 403.125 L 112.5 403.125 L 112.5 412.5 L 103.125 412.5 Z M 103.125 403.125 "/>
<path style=" stroke:none;fill-rule:nonzero;fill:rgb(7.058824%,30.588235%,53.72549%);fill-opacity:1;" d="M 543.75 393.75 L 553.125 393.75 L 553.125 403.125 L 543.75 403.125 Z M 543.75 393.75 "/>
<path style=" stroke:none;fill-rule:nonzero;fill:rgb(74.509804%,29.019608%,18.431373%);fill-opacity:1;" d="M 112.5 393.75 L 121.875 393.75 L 121.875 403.125 L 112.5 403.125 Z M 112.5 393.75 "/>
<path style=" stroke:none;fill-rule:nonzero;fill:rgb(17.254902%,90.980392%,96.078431%);fill-opacity:1;" d="M 403.125 384.375 L 412.5 384.375 L 412.5 393.75 L 403.125 393.75 Z M 403.125 384.375 "/>
<path style=" stroke:none;fill-rule:nonzero;fill:rgb(46.666667%,41.960784%,23.921569%);fill-opacity:1;" d="M 356.25 384.375 L 365.625 384.375 L 365.625 393.75 L 356.25 393.75 Z M 356.25 384.375 "/>
<path style=" stroke:none;fill-rule:nonzero;fill:rgb(34.901961%,17.647059%,30.980392%);fill-opacity:1;" d="M 37.5 384.375 L 46.875 384.375 L 46.875 393.75 L 37.5 393.75 Z M 37.5 384.375 "/>
<path style=" stroke:none;fill-rule:nonzero;fill:rgb(12.941176%,41.960784%,47.843137%);fill-opacity:1;" d="M 309.375 356.25 L 318.75 356.25 L 318.75 365.625 L 309.375 365.625 Z M 309.375 356.25 "/>
<path style=" stroke:none;fill-rule:nonzero;fill:rgb(17.254902%,90.980392%,96.078431%);fill-opacity:1;" d="M 178.125 356.25 L 187.5 356.25 L 187.5 365.625 L 178.125 365.625 Z M 178.125 356.25 "/>
<path style=" stroke:none;fill-rule:nonzero;fill:rgb(12.941176%,41.960784%,47.843137%);fill-opacity:1;" d="M 562.5 346.875 L 571.875 346.875 L 571.875 356.25 L 562.5 356.25 Z M 562.5 346.875 "/>
<path style=" stroke:none;fill-rule:nonzero;fill:rgb(17.254902%,90.980392%,96.078431%);fill-opacity:1;" d="M 496.875 346.875 L 506.25 346.875 L 506.25 356.25 L 496.875 356.25 Z M 496.875 346.875 "/>
<path style=" stroke:none;fill-rule:nonzero;fill:rgb(99.607843%,90.588235%,38.039216%);fill-opacity:1;" d="M 384.375 346.875 L 393.75 346.875 L 393.75 356.25 L 384.375 356.25 Z M 384.375 346.875 "/>
<path style=" stroke:none;fill-rule:nonzero;fill:rgb(17.254902%,90.980392%,96.078431%);fill-opacity:1;" d="M 262.5 337.5 L 271.875 337.5 L 271.875 346.875 L 262.5 346.875 Z M 262.5 337.5 "/>
<path style=" stroke:none;fill-rule:nonzero;fill:rgb(74.509804%,29.019608%,18.431373%);fill-opacity:1;" d="M 581.25 328.125 L 590.625 328.125 L 590.625 337.5 L 581.25 337.5 Z M 581.25 328.125 "/>
<path style=" stroke:none;fill-rule:nonzero;fill:rgb(74.509804%,29.019608%,18.431373%);fill-opacity:1;" d="M 440.625 328.125 L 450 328.125 L 450 337.5 L 440.625 337.5 Z M 440.625 328.125 "/>
<path style=" stroke:none;fill-rule:nonzero;fill:rgb(46.666667%,41.960784%,23.921569%);fill-opacity:1;" d="M 187.5 328.125 L 196.875 328.125 L 196.875 337.5 L 187.5 337.5 Z M 187.5 328.125 "/>
<path style=" stroke:none;fill-rule:nonzero;fill:rgb(12.941176%,41.960784%,47.843137%);fill-opacity:1;" d="M 103.125 328.125 L 112.5 328.125 L 112.5 337.5 L 103.125 337.5 Z M 103.125 328.125 "/>
<path style=" stroke:none;fill-rule:nonzero;fill:rgb(74.509804%,29.019608%,18.431373%);fill-opacity:1;" d="M 450 318.75 L 459.375 318.75 L 459.375 328.125 L 450 328.125 Z M 450 318.75 "/>
<path style=" stroke:none;fill-rule:nonzero;fill:rgb(99.607843%,68.235294%,20.392157%);fill-opacity:1;" d="M 440.625 318.75 L 450 318.75 L 450 328.125 L 440.625 328.125 Z M 440.625 318.75 "/>
<path style=" stroke:none;fill-rule:nonzero;fill:rgb(74.509804%,29.019608%,18.431373%);fill-opacity:1;" d="M 431.25 318.75 L 440.625 318.75 L 440.625 328.125 L 431.25 328.125 Z M 431.25 318.75 "/>
<path style=" stroke:none;fill-rule:nonzero;fill:rgb(34.901961%,17.647059%,30.980392%);fill-opacity:1;" d="M 421.875 318.75 L 431.25 318.75 L 431.25 328.125 L 421.875 328.125 Z M 421.875 318.75 "/>
<path style=" stroke:none;fill-rule:nonzero;fill:rgb(34.901961%,17.647059%,30.980392%);fill-opacity:1;" d="M 168.75 318.75 L 178.125 318.75 L 178.125 328.125 L 168.75 328.125 Z M 168.75 318.75 "/>
<path style=" stroke:none;fill-rule:nonzero;fill:rgb(74.509804%,29.019608%,18.431373%);fill-opacity:1;" d="M 459.375 309.375 L 468.75 309.375 L 468.75 318.75 L 459.375 318.75 Z M 459.375 309.375 "/>
<path style=" stroke:none;fill-rule:nonzero;fill:rgb(99.607843%,68.235294%,20.392157%);fill-opacity:1;" d="M 450 309.375 L 459.375 309.375 L 459.375 318.75 L 450 318.75 Z M 450 309.375 "/>
<path style=" stroke:none;fill-rule:nonzero;fill:rgb(99.607843%,90.588235%,38.039216%);fill-opacity:1;" d="M 440.625 309.375 L 450 309.375 L 450 318.75 L 440.625 318.75 Z M 440.625 309.375 "/>
<path style=" stroke:none;fill-rule:nonzero;fill:rgb(99.607843%,68.235294%,20.392157%);fill-opacity:1;" d="M 431.25 309.375 L 440.625 309.375 L 440.625 318.75 L 431.25 318.75 Z M 431.25 309.375 "/>
<path style=" stroke:none;fill-rule:nonzero;fill:rgb(74.509804%,29.019608%,18.431373%);fill-opacity:1;" d="M 421.875 309.375 L 431.25 309.375 L 431.25 318.75 L 421.875 318.75 Z M 421.875 309.375 "/>
<path style=" stroke:none;fill-rule:nonzero;fill:rgb(74.509804%,29.019608%,18.431373%);fill-opacity:1;" d="M 450 300 L 459.375 300 L 459.375 309.375 L 450 309.375 Z M 450 300 "/>
<path style=" stroke:none;fill-rule:nonzero;fill:rgb(99.607843%,68.235294%,20.392157%);fill-opacity:1;" d="M 440.625 300 L 450 300 L 450 309.375 L 440.625 309.375 Z M 440.625 300 "/>
<path style=" stroke:none;fill-rule:nonzero;fill:rgb(74.509804%,29.019608%,18.431373%);fill-opacity:1;" d="M 431.25 300 L 440.625 300 L 440.625 309.375 L 431.25 309.375 Z M 431.25 300 "/>
<path style=" stroke:none;fill-rule:nonzero;fill:rgb(46.666667%,41.960784%,23.921569%);fill-opacity:1;" d="M 234.375 300 L 243.75 300 L 243.75 309.375 L 234.375 309.375 Z M 234.375 300 "/>
<path style=" stroke:none;fill-rule:nonzero;fill:rgb(74.509804%,29.019608%,18.431373%);fill-opacity:1;" d="M 440.625 290.625 L 450 290.625 L 450 300 L 440.625 300 Z M 440.625 290.625 "/>
<path style=" stroke:none;fill-rule:nonzero;fill:rgb(99.607843%,90.588235%,38.039216%);fill-opacity:1;" d="M 318.75 281.25 L 328.125 281.25 L 328.125 290.625 L 318.75 290.625 Z M 318.75 281.25 "/>
<path style=" stroke:none;fill-rule:nonzero;fill:rgb(17.254902%,90.980392%,96.078431%);fill-opacity:1;" d="M 150 281.25 L 159.375 281.25 L 159.375 290.625 L 150 290.625 Z M 150 281.25 "/>
<path style=" stroke:none;fill-rule:nonzero;fill:rgb(46.666667%,41.960784%,23.921569%);fill-opacity:1;" d="M 571.875 271.875 L 581.25 271.875 L 581.25 281.25 L 571.875 281.25 Z M 571.875 271.875 "/>
<path style=" stroke:none;fill-rule:nonzero;fill:rgb(12.941176%,41.960784%,47.843137%);fill-opacity:1;" d="M 506.25 271.875 L 515.625 271.875 L 515.625 281.25 L 506.25 281.25 Z M 506.25 271.875 "/>
<path style=" stroke:none;fill-rule:nonzero;fill:rgb(46.666667%,41.960784%,23.921569%);fill-opacity:1;" d="M 65.625 271.875 L 75 271.875 L 75 281.25 L 65.625 281.25 Z M 65.625 271.875 "/>
<path style=" stroke:none;fill-rule:nonzero;fill:rgb(12.941176%,41.960784%,47.843137%);fill-opacity:1;" d="M 365.625 253.125 L 375 253.125 L 375 262.5 L 365.625 262.5 Z M 365.625 253.125 "/>
<path style=" stroke:none;fill-rule:nonzero;fill:rgb(4.313725%,43.529412%,68.235294%);fill-opacity:1;" d="M 262.5 253.125 L 271.875 253.125 L 271.875 262.5 L 262.5 262.5 Z M 262.5 253.125 "/>
<path style=" stroke:none;fill-rule:nonzero;fill:rgb(17.254902%,90.980392%,96.078431%);fill-opacity:1;" d="M 431.25 243.75 L 440.625 243.75 L 440.625 253.125 L 431.25 253.125 Z M 431.25 243.75 "/>
<path style=" stroke:none;fill-rule:nonzero;fill:rgb(0%,60%,85.882353%);fill-opacity:1;" d="M 271.875 243.75 L 281.25 243.75 L 281.25 253.125 L 271.875 253.125 Z M 271.875 243.75 "/>
<path style=" stroke:none;fill-rule:nonzero;fill:rgb(17.254902%,90.980392%,96.078431%);fill-opacity:1;" d="M 262.5 243.75 L 271.875 243.75 L 271.875 253.125 L 262.5 253.125 Z M 262.5 243.75 "/>
<path style=" stroke:none;fill-rule:nonzero;fill:rgb(0%,60%,85.882353%);fill-opacity:1;" d="M 253.125 243.75 L 262.5 243.75 L 262.5 253.125 L 253.125 253.125 Z M 253.125 243.75 "/>
<path style=" stroke:none;fill-rule:nonzero;fill:rgb(12.941176%,41.960784%,47.843137%);fill-opacity:1;" d="M 178.125 243.75 L 187.5 243.75 L 187.5 253.125 L 178.125 253.125 Z M 178.125 243.75 "/>
<path style=" stroke:none;fill-rule:nonzero;fill:rgb(74.509804%,29.019608%,18.431373%);fill-opacity:1;" d="M 18.75 243.75 L 28.125 243.75 L 28.125 253.125 L 18.75 253.125 Z M 18.75 243.75 "/>
<path style=" stroke:none;fill-rule:nonzero;fill:rgb(34.901961%,17.647059%,30.980392%);fill-opacity:1;" d="M 337.5 234.375 L 346.875 234.375 L 346.875 243.75 L 337.5 243.75 Z M 337.5 234.375 "/>
<path style=" stroke:none;fill-rule:nonzero;fill:rgb(4.313725%,43.529412%,68.235294%);fill-opacity:1;" d="M 281.25 234.375 L 290.625 234.375 L 290.625 243.75 L 281.25 243.75 Z M 281.25 234.375 "/>
<path style=" stroke:none;fill-rule:nonzero;fill:rgb(17.254902%,90.980392%,96.078431%);fill-opacity:1;" d="M 271.875 234.375 L 281.25 234.375 L 281.25 243.75 L 271.875 243.75 Z M 271.875 234.375 "/>
<path style=" stroke:none;fill-rule:nonzero;fill:rgb(91.372549%,89.803922%,88.235294%);fill-opacity:1;" d="M 262.5 234.375 L 271.875 234.375 L 271.875 243.75 L 262.5 243.75 Z M 262.5 234.375 "/>
<path style=" stroke:none;fill-rule:nonzero;fill:rgb(17.254902%,90.980392%,96.078431%);fill-opacity:1;" d="M 253.125 234.375 L 262.5 234.375 L 262.5 243.75 L 253.125 243.75 Z M 253.125 234.375 "/>
<path style=" stroke:none;fill-rule:nonzero;fill:rgb(4.313725%,43.529412%,68.235294%);fill-opacity:1;" d="M 243.75 234.375 L 253.125 234.375 L 253.125 243.75 L 243.75 243.75 Z M 243.75 234.375 "/>
<path style=" stroke:none;fill-rule:nonzero;fill:rgb(46.666667%,41.960784%,23.921569%);fill-opacity:1;" d="M 506.25 225 L 515.625 225 L 515.625 234.375 L 506.25 234.375 Z M 506.25 225 "/>
<path style=" stroke:none;fill-rule:nonzero;fill:rgb(0%,60%,85.882353%);fill-opacity:1;" d="M 478.125 225 L 487.5 225 L 487.5 234.375 L 478.125 234.375 Z M 478.125 225 "/>
<path style=" stroke:none;fill-rule:nonzero;fill:rgb(0%,60%,85.882353%);fill-opacity:1;" d="M 271.875 225 L 281.25 225 L 281.25 234.375 L 271.875 234.375 Z M 271.875 225 "/>
<path style=" stroke:none;fill-rule:nonzero;fill:rgb(17.254902%,90.980392%,96.078431%);fill-opacity:1;" d="M 262.5 225 L 271.875 225 L 271.875 234.375 L 262.5 234.375 Z M 262.5 225 "/>
<path style=" stroke:none;fill-rule:nonzero;fill:rgb(0%,60%,85.882353%);fill-opacity:1;" d="M 253.125 225 L 262.5 225 L 262.5 234.375 L 253.125 234.375 Z M 253.125 225 "/>
<path style=" stroke:none;fill-rule:nonzero;fill:rgb(0%,60%,85.882353%);fill-opacity:1;" d="M 487.5 215.625 L 496.875 215.625 L 496.875 225 L 487.5 225 Z M 487.5 215.625 "/>
<path style=" stroke:none;fill-rule:nonzero;fill:rgb(17.254902%,90.980392%,96.078431%);fill-opacity:1;" d="M 478.125 215.625 L 487.5 215.625 L 487.5 225 L 478.125 225 Z M 478.125 215.625 "/>
<path style=" stroke:none;fill-rule:nonzero;fill:rgb(0%,60%,85.882353%);fill-opacity:1;" d="M 468.75 215.625 L 478.125 215.625 L 478.125 225 L 468.75 225 Z M 468.75 215.625 "/>
<path style=" stroke:none;fill-rule:nonzero;fill:rgb(12.941176%,41.960784%,47.843137%);fill-opacity:1;" d="M 440.625 215.625 L 450 215.625 L 450 225 L 440.625 225 Z M 440.625 215.625 "/>
<path style=" stroke:none;fill-rule:nonzero;fill:rgb(4.313725%,43.529412%,68.235294%);fill-opacity:1;" d="M 262.5 215.625 L 271.875 215.625 L 271.875 225 L 262.5 225 Z M 262.5 215.625 "/>
<path style=" stroke:none;fill-rule:nonzero;fill:rgb(7.058824%,30.588235%,53.72549%);fill-opacity:1;" d="M 0 215.625 L 9.375 215.625 L 9.375 225 L 0 225 Z M 0 215.625 "/>
<path style=" stroke:none;fill-rule:nonzero;fill:rgb(17.254902%,90.980392%,96.078431%);fill-opacity:1;" d="M 581.25 206.25 L 590.625 206.25 L 590.625 215.625 L 581.25 215.625 Z M 581.25 206.25 "/>
<path style=" stroke:none;fill-rule:nonzero;fill:rgb(0%,60%,85.882353%);fill-opacity:1;" d="M 478.125 206.25 L 487.5 206.25 L 487.5 215.625 L 478.125 215.625 Z M 478.125 206.25 "/>
<path style=" stroke:none;fill-rule:nonzero;fill:rgb(34.901961%,17.647059%,30.980392%);fill-opacity:1;" d="M 543.75 196.875 L 553.125 196.875 L 553.125 206.25 L 543.75 206.25 Z M 543.75 196.875 "/>
<path style=" stroke:none;fill-rule:nonzero;fill:rgb(4.313725%,43.529412%,68.235294%);fill-opacity:1;" d="M 150 196.875 L 159.375 196.875 L 159.375 206.25 L 150 206.25 Z M 150 196.875 "/>
<path style=" stroke:none;fill-rule:nonzero;fill:rgb(12.941176%,41.960784%,47.843137%);fill-opacity:1;" d="M 75 196.875 L 84.375 196.875 L 84.375 206.25 L 75 206.25 Z M 75 196.875 "/>
<path style=" stroke:none;fill-rule:nonzero;fill:rgb(34.901961%,17.647059%,30.980392%);fill-opacity:1;" d="M 421.875 187.5 L 431.25 187.5 L 431.25 196.875 L 421.875 196.875 Z M 421.875 187.5 "/>
<path style=" stroke:none;fill-rule:nonzero;fill:rgb(0%,60%,85.882353%);fill-opacity:1;" d="M 412.5 187.5 L 421.875 187.5 L 421.875 196.875 L 412.5 196.875 Z M 412.5 187.5 "/>
<path style=" stroke:none;fill-rule:nonzero;fill:rgb(34.901961%,17.647059%,30.980392%);fill-opacity:1;" d="M 262.5 187.5 L 271.875 187.5 L 271.875 196.875 L 262.5 196.875 Z M 262.5 187.5 "/>
<path style=" stroke:none;fill-rule:nonzero;fill:rgb(4.313725%,43.529412%,68.235294%);fill-opacity:1;" d="M 159.375 187.5 L 168.75 187.5 L 168.75 196.875 L 159.375 196.875 Z M 159.375 187.5 "/>
<path style=" stroke:none;fill-rule:nonzero;fill:rgb(17.254902%,90.980392%,96.078431%);fill-opacity:1;" d="M 150 187.5 L 159.375 187.5 L 159.375 196.875 L 150 196.875 Z M 150 187.5 "/>
<path style=" stroke:none;fill-rule:nonzero;fill:rgb(4.313725%,43.529412%,68.235294%);fill-opacity:1;" d="M 140.625 187.5 L 150 187.5 L 150 196.875 L 140.625 196.875 Z M 140.625 187.5 "/>
<path style=" stroke:none;fill-rule:nonzero;fill:rgb(0%,60%,85.882353%);fill-opacity:1;" d="M 28.125 187.5 L 37.5 187.5 L 37.5 196.875 L 28.125 196.875 Z M 28.125 187.5 "/>
<path style=" stroke:none;fill-rule:nonzero;fill:rgb(0%,60%,85.882353%);fill-opacity:1;" d="M 421.875 178.125 L 431.25 178.125 L 431.25 187.5 L 421.875 187.5 Z M 421.875 178.125 "/>
<path style=" stroke:none;fill-rule:nonzero;fill:rgb(17.254902%,90.980392%,96.078431%);fill-opacity:1;" d="M 412.5 178.125 L 421.875 178.125 L 421.875 187.5 L 412.5 187.5 Z M 412.5 178.125 "/>
<path style=" stroke:none;fill-rule:nonzero;fill:rgb(0%,60%,85.882353%);fill-opacity:1;" d="M 403.125 178.125 L 412.5 178.125 L 412.5 187.5 L 403.125 187.5 Z M 403.125 178.125 "/>
<path style=" stroke:none;fill-rule:nonzero;fill:rgb(99.607843%,90.588235%,38.039216%);fill-opacity:1;" d="M 196.875 178.125 L 206.25 178.125 L 206.25 187.5 L 196.875 187.5 Z M 196.875 178.125 "/>
<path style=" stroke:none;fill-rule:nonzero;fill:rgb(4.313725%,43.529412%,68.235294%);fill-opacity:1;" d="M 150 178.125 L 159.375 178.125 L 159.375 187.5 L 150 187.5 Z M 150 178.125 "/>
<path style=" stroke:none;fill-rule:nonzero;fill:rgb(0%,60%,85.882353%);fill-opacity:1;" d="M 412.5 168.75 L 421.875 168.75 L 421.875 178.125 L 412.5 178.125 Z M 412.5 168.75 "/>
<path style=" stroke:none;fill-rule:nonzero;fill:rgb(17.254902%,90.980392%,96.078431%);fill-opacity:1;" d="M 243.75 168.75 L 253.125 168.75 L 253.125 178.125 L 243.75 178.125 Z M 243.75 168.75 "/>
<path style=" stroke:none;fill-rule:nonzero;fill:rgb(17.254902%,90.980392%,96.078431%);fill-opacity:1;" d="M 37.5 168.75 L 46.875 168.75 L 46.875 178.125 L 37.5 178.125 Z M 37.5 168.75 "/>
<path style=" stroke:none;fill-rule:nonzero;fill:rgb(46.666667%,41.960784%,23.921569%);fill-opacity:1;" d="M 356.25 159.375 L 365.625 159.375 L 365.625 168.75 L 356.25 168.75 Z M 356.25 159.375 "/>
<path style=" stroke:none;fill-rule:nonzero;fill:rgb(46.666667%,41.960784%,23.921569%);fill-opacity:1;" d="M 393.75 150 L 403.125 150 L 403.125 159.375 L 393.75 159.375 Z M 393.75 150 "/>
<path style=" stroke:none;fill-rule:nonzero;fill:rgb(12.941176%,41.960784%,47.843137%);fill-opacity:1;" d="M 262.5 150 L 271.875 150 L 271.875 159.375 L 262.5 159.375 Z M 262.5 150 "/>
<path style=" stroke:none;fill-rule:nonzero;fill:rgb(12.941176%,41.960784%,47.843137%);fill-opacity:1;" d="M 562.5 140.625 L 571.875 140.625 L 571.875 150 L 562.5 150 Z M 562.5 140.625 "/>
<path style=" stroke:none;fill-rule:nonzero;fill:rgb(34.901961%,17.647059%,30.980392%);fill-opacity:1;" d="M 571.875 131.25 L 581.25 131.25 L 581.25 140.625 L 571.875 140.625 Z M 571.875 131.25 "/>
<path style=" stroke:none;fill-rule:nonzero;fill:rgb(96.862745%,46.27451%,13.333333%);fill-opacity:1;" d="M 309.375 131.25 L 318.75 131.25 L 318.75 140.625 L 309.375 140.625 Z M 309.375 131.25 "/>
<path style=" stroke:none;fill-rule:nonzero;fill:rgb(17.254902%,90.980392%,96.078431%);fill-opacity:1;" d="M 253.125 131.25 L 262.5 131.25 L 262.5 140.625 L 253.125 140.625 Z M 253.125 131.25 "/>
<path style=" stroke:none;fill-rule:nonzero;fill:rgb(46.666667%,41.960784%,23.921569%);fill-opacity:1;" d="M 56.25 131.25 L 65.625 131.25 L 65.625 140.625 L 56.25 140.625 Z M 56.25 131.25 "/>
<path style=" stroke:none;fill-rule:nonzero;fill:rgb(46.666667%,41.960784%,23.921569%);fill-opacity:1;" d="M 450 121.875 L 459.375 121.875 L 459.375 131.25 L 450 131.25 Z M 450 121.875 "/>
<path style=" stroke:none;fill-rule:nonzero;fill:rgb(96.862745%,46.27451%,13.333333%);fill-opacity:1;" d="M 318.75 121.875 L 328.125 121.875 L 328.125 131.25 L 318.75 131.25 Z M 318.75 121.875 "/>
<path style=" stroke:none;fill-rule:nonzero;fill:rgb(99.607843%,90.588235%,38.039216%);fill-opacity:1;" d="M 309.375 121.875 L 318.75 121.875 L 318.75 131.25 L 309.375 131.25 Z M 309.375 121.875 "/>
<path style=" stroke:none;fill-rule:nonzero;fill:rgb(96.862745%,46.27451%,13.333333%);fill-opacity:1;" d="M 300 121.875 L 309.375 121.875 L 309.375 131.25 L 300 131.25 Z M 300 121.875 "/>
<path style=" stroke:none;fill-rule:nonzero;fill:rgb(96.862745%,46.27451%,13.333333%);fill-opacity:1;" d="M 309.375 112.5 L 318.75 112.5 L 318.75 121.875 L 309.375 121.875 Z M 309.375 112.5 "/>
<path style=" stroke:none;fill-rule:nonzero;fill:rgb(46.666667%,41.960784%,23.921569%);fill-opacity:1;" d="M 225 112.5 L 234.375 112.5 L 234.375 121.875 L 225 121.875 Z M 225 112.5 "/>
<path style=" stroke:none;fill-rule:nonzero;fill:rgb(17.254902%,90.980392%,96.078431%);fill-opacity:1;" d="M 131.25 112.5 L 140.625 112.5 L 140.625 121.875 L 131.25 121.875 Z M 131.25 112.5 "/>
<path style=" stroke:none;fill-rule:nonzero;fill:rgb(17.254902%,90.980392%,96.078431%);fill-opacity:1;" d="M 478.125 103.125 L 487.5 103.125 L 487.5 112.5 L 478.125 112.5 Z M 478.125 103.125 "/>
<path style=" stroke:none;fill-rule:nonzero;fill:rgb(34.901961%,17.647059%,30.980392%);fill-opacity:1;" d="M 346.875 103.125 L 356.25 103.125 L 356.25 112.5 L 346.875 112.5 Z M 346.875 103.125 "/>
<path style=" stroke:none;fill-rule:nonzero;fill:rgb(74.509804%,29.019608%,18.431373%);fill-opacity:1;" d="M 159.375 103.125 L 168.75 103.125 L 168.75 112.5 L 159.375 112.5 Z M 159.375 103.125 "/>
<path style=" stroke:none;fill-rule:nonzero;fill:rgb(34.901961%,17.647059%,30.980392%);fill-opacity:1;" d="M 93.75 103.125 L 103.125 103.125 L 103.125 112.5 L 93.75 112.5 Z M 93.75 103.125 "/>
<path style=" stroke:none;fill-rule:nonzero;fill:rgb(46.666667%,41.960784%,23.921569%);fill-opacity:1;" d="M 553.125 93.75 L 562.5 93.75 L 562.5 103.125 L 553.125 103.125 Z M 553.125 93.75 "/>
<path style=" stroke:none;fill-rule:nonzero;fill:rgb(12.941176%,41.960784%,47.843137%);fill-opacity:1;" d="M 337.5 93.75 L 346.875 93.75 L 346.875 103.125 L 337.5 103.125 Z M 337.5 93.75 "/>
<path style=" stroke:none;fill-rule:nonzero;fill:rgb(34.901961%,17.647059%,30.980392%);fill-opacity:1;" d="M 440.625 65.625 L 450 65.625 L 450 75 L 440.625 75 Z M 440.625 65.625 "/>
<path style=" stroke:none;fill-rule:nonzero;fill:rgb(96.862745%,46.27451%,13.333333%);fill-opacity:1;" d="M 37.5 65.625 L 46.875 65.625 L 46.875 75 L 37.5 75 Z M 37.5 65.625 "/>
<path style=" stroke:none;fill-rule:nonzero;fill:rgb(96.862745%,46.27451%,13.333333%);fill-opacity:1;" d="M 46.875 56.25 L 56.25 56.25 L 56.25 65.625 L 46.875 65.625 Z M 46.875 56.25 "/>
<path style=" stroke:none;fill-rule:nonzero;fill:rgb(99.607843%,90.588235%,38.039216%);fill-opacity:1;" d="M 37.5 56.25 L 46.875 56.25 L 46.875 65.625 L 37.5 65.625 Z M 37.5 56.25 "/>
<path style=" stroke:none;fill-rule:nonzero;fill:rgb(96.862745%,46.27451%,13.333333%);fill-opacity:1;" d="M 28.125 56.25 L 37.5 56.25 L 37.5 65.625 L 28.125 65.625 Z M 28.125 56.25 "/>
<path style=" stroke:none;fill-rule:nonzero;fill:rgb(12.941176%,41.960784%,47.843137%);fill-opacity:1;" d="M 112.5 46.875 L 121.875 46.875 L 121.875 56.25 L 112.5 56.25 Z M 112.5 46.875 "/>
<path style=" stroke:none;fill-rule:nonzero;fill:rgb(96.862745%,46.27451%,13.333333%);fill-opacity:1;" d="M 37.5 46.875 L 46.875 46.875 L 46.875 56.25 L 37.5 56.25 Z M 37.5 46.875 "/>
<path style=" stroke:none;fill-rule:nonzero;fill:rgb(34.901961%,17.647059%,30.980392%);fill-opacity:1;" d="M 318.75 37.5 L 328.125 37.5 L 328.125 46.875 L 318.75 46.875 Z M 318.75 37.5 "/>
<path style=" stroke:none;fill-rule:nonzero;fill:rgb(34.901961%,17.647059%,30.980392%);fill-opacity:1;" d="M 121.875 37.5 L 131.25 37.5 L 131.25 46.875 L 121.875 46.875 Z M 121.875 37.5 "/>
<path style=" stroke:none;fill-rule:nonzero;fill:rgb(17.254902%,90.980392%,96.078431%);fill-opacity:1;" d="M 356.25 28.125 L 365.625 28.125 L 365.625 37.5 L 356.25 37.5 Z M 356.25 28.125 "/>
<path style=" stroke:none;fill-rule:nonzero;fill:rgb(0%,60%,85.882353%);fill-opacity:1;" d="M 253.125 28.125 L 262.5 28.125 L 262.5 37.5 L 253.125 37.5 Z M 253.125 28.125 "/>
<path style=" stroke:none;fill-rule:nonzero;fill:rgb(46.666667%,41.960784%,23.921569%);fill-opacity:1;" d="M 0 28.125 L 9.375 28.125 L 9.375 37.5 L 0 37.5 Z M 0 28.125 "/>
<path style=" stroke:none;fill-rule:nonzero;fill:rgb(0%,60%,85.882353%);fill-opacity:1;" d="M 262.5 18.75 L 271.875 18.75 L 271.875 28.125 L 262.5 28.125 Z M 262.5 18.75 "/>
<path style=" stroke:none;fill-rule:nonzero;fill:rgb(17.254902%,90.980392%,96.078431%);fill-opacity:1;" d="M 253.125 18.75 L 262.5 18.75 L 262.5 28.125 L 253.125 28.125 Z M 253.125 18.75 "/>
<path style=" stroke:none;fill-rule:nonzero;fill:rgb(0%,60%,85.882353%);fill-opacity:1;" d="M 243.75 18.75 L 253.125 18.75 L 253.125 28.125 L 243.75 28.125 Z M 243.75 18.75 "/>
<path style=" stroke:none;fill-rule:nonzero;fill:rgb(46.666667%,41.960784%,23.921569%);fill-opacity:1;" d="M 281.25 9.375 L 290.625 9.375 L 290.625 18.75 L 281.25 18.75 Z M 281.25 9.375 "/>
<path style=" stroke:none;fill-rule:nonzero;fill:rgb(0%,60%,85.882353%);fill-opacity:1;" d="M 253.125 9.375 L 262.5 9.375 L 262.5 18.75 L 253.125 18.75 Z M 253.125 9.375 "/>
<path style=" stroke:none;fill-rule:nonzero;fill:rgb(34.901961%,17.647059%,30.980392%);fill-opacity:1;" d="M 168.75 9.375 L 178.125 9.375 L 178.125 18.75 L 168.75 18.75 Z M 168.75 9.375 "/>
<path style=" stroke:none;fill-rule:nonzero;fill:rgb(17.254902%,90.980392%,96.078431%);fill-opacity:1;" d="M 28.125 9.375 L 37.5 9.375 L 37.5 18.75 L 28.125 18.75 Z M 28.125 9.375 "/>
<path style=" stroke:none;fill-rule:nonzero;fill:rgb(14.509804%,10.196078%,19.607843%);fill-opacity:1;" d="M 121.875 571.875 L 121.875 590.625 L 131.25 590.625 L 131.25 581.25 L 140.625 581.25 L 140.625 571.875 Z M 121.875 571.875 "/>
<path style=" stroke:none;fill-rule:nonzero;fill:rgb(14.509804%,10.196078%,19.607843%);fill-opacity:1;" d="M 196.875 562.5 L 187.5 562.5 L 187.5 571.875 L 206.25 571.875 L 206.25 553.125 L 196.875 553.125 Z M 196.875 562.5 "/>
<path style=" stroke:none;fill-rule:nonzero;fill:rgb(14.509804%,10.196078%,19.607843%);fill-opacity:1;" d="M 328.125 534.375 L 337.5 534.375 L 337.5 543.75 L 328.125 543.75 Z M 328.125 534.375 "/>
<path style=" stroke:none;fill-rule:nonzero;fill:rgb(14.509804%,10.196078%,19.607843%);fill-opacity:1;" d="M 253.125 525 L 262.5 525 L 262.5 534.375 L 253.125 534.375 Z M 253.125 525 "/>
<path style=" stroke:none;fill-rule:nonzero;fill:rgb(14.509804%,10.196078%,19.607843%);fill-opacity:1;" d="M 262.5 515.625 L 271.875 515.625 L 271.875 525 L 262.5 525 Z M 262.5 515.625 "/>
<path style=" stroke:none;fill-rule:nonzero;fill:rgb(14.509804%,10.196078%,19.607843%);fill-opacity:1;" d="M 112.5 515.625 L 121.875 515.625 L 121.875 525 L 112.5 525 Z M 112.5 515.625 "/>
<path style=" stroke:none;fill-rule:nonzero;fill:rgb(14.509804%,10.196078%,19.607843%);fill-opacity:1;" d="M 103.125 506.25 L 112.5 506.25 L 112.5 515.625 L 103.125 515.625 Z M 103.125 506.25 "/>
<path style=" stroke:none;fill-rule:nonzero;fill:rgb(14.509804%,10.196078%,19.607843%);fill-opacity:1;" d="M 468.75 496.875 L 478.125 496.875 L 478.125 506.25 L 468.75 506.25 Z M 468.75 496.875 "/>
<path style=" stroke:none;fill-rule:nonzero;fill:rgb(14.509804%,10.196078%,19.607843%);fill-opacity:1;" d="M 459.375 487.5 L 468.75 487.5 L 468.75 496.875 L 459.375 496.875 Z M 459.375 487.5 "/>
<path style=" stroke:none;fill-rule:nonzero;fill:rgb(14.509804%,10.196078%,19.607843%);fill-opacity:1;" d="M 121.875 487.5 L 121.875 496.875 L 131.25 496.875 L 131.25 506.25 L 140.625 506.25 L 140.625 487.5 Z M 121.875 487.5 "/>
<path style=" stroke:none;fill-rule:nonzero;fill:rgb(14.509804%,10.196078%,19.607843%);fill-opacity:1;" d="M 487.5 478.125 L 496.875 478.125 L 496.875 487.5 L 487.5 487.5 Z M 487.5 478.125 "/>
<path style=" stroke:none;fill-rule:nonzero;fill:rgb(14.509804%,10.196078%,19.607843%);fill-opacity:1;" d="M 37.5 478.125 L 46.875 478.125 L 46.875 487.5 L 37.5 487.5 Z M 37.5 478.125 "/>
<path style=" stroke:none;fill-rule:nonzero;fill:rgb(14.509804%,10.196078%,19.607843%);fill-opacity:1;" d="M 478.125 468.75 L 487.5 468.75 L 487.5 478.125 L 478.125 478.125 Z M 478.125 468.75 "/>
<path style=" stroke:none;fill-rule:nonzero;fill:rgb(14.509804%,10.196078%,19.607843%);fill-opacity:1;" d="M 328.125 468.75 L 318.75 468.75 L 318.75 487.5 L 337.5 487.5 L 337.5 478.125 L 328.125 478.125 Z M 328.125 468.75 "/>
<path style=" stroke:none;fill-rule:nonzero;fill:rgb(14.509804%,10.196078%,19.607843%);fill-opacity:1;" d="M 46.875 468.75 L 56.25 468.75 L 56.25 478.125 L 46.875 478.125 Z M 46.875 468.75 "/>
<path style=" stroke:none;fill-rule:nonzero;fill:rgb(14.509804%,10.196078%,19.607843%);fill-opacity:1;" d="M 346.875 459.375 L 356.25 459.375 L 356.25 468.75 L 346.875 468.75 Z M 346.875 459.375 "/>
<path style=" stroke:none;fill-rule:nonzero;fill:rgb(14.509804%,10.196078%,19.607843%);fill-opacity:1;" d="M 337.5 450 L 346.875 450 L 346.875 459.375 L 337.5 459.375 Z M 337.5 450 "/>
<path style=" stroke:none;fill-rule:nonzero;fill:rgb(14.509804%,10.196078%,19.607843%);fill-opacity:1;" d="M 187.5 450 L 196.875 450 L 196.875 459.375 L 187.5 459.375 Z M 187.5 450 "/>
<path style=" stroke:none;fill-rule:nonzero;fill:rgb(14.509804%,10.196078%,19.607843%);fill-opacity:1;" d="M 196.875 440.625 L 206.25 440.625 L 206.25 450 L 196.875 450 Z M 196.875 440.625 "/>
<path style=" stroke:none;fill-rule:nonzero;fill:rgb(14.509804%,10.196078%,19.607843%);fill-opacity:1;" d="M 121.875 431.25 L 131.25 431.25 L 131.25 440.625 L 121.875 440.625 Z M 121.875 431.25 "/>
<path style=" stroke:none;fill-rule:nonzero;fill:rgb(14.509804%,10.196078%,19.607843%);fill-opacity:1;" d="M 506.25 421.875 L 515.625 421.875 L 515.625 431.25 L 506.25 431.25 Z M 506.25 421.875 "/>
<path style=" stroke:none;fill-rule:nonzero;fill:rgb(14.509804%,10.196078%,19.607843%);fill-opacity:1;" d="M 515.625 412.5 L 525 412.5 L 525 421.875 L 515.625 421.875 Z M 515.625 412.5 "/>
<path style=" stroke:none;fill-rule:nonzero;fill:rgb(14.509804%,10.196078%,19.607843%);fill-opacity:1;" d="M 487.5 403.125 L 496.875 403.125 L 496.875 412.5 L 487.5 412.5 Z M 487.5 403.125 "/>
<path style=" stroke:none;fill-rule:nonzero;fill:rgb(14.509804%,10.196078%,19.607843%);fill-opacity:1;" d="M 403.125 403.125 L 403.125 412.5 L 412.5 412.5 L 412.5 421.875 L 421.875 421.875 L 421.875 403.125 Z M 403.125 403.125 "/>
<path style=" stroke:none;fill-rule:nonzero;fill:rgb(14.509804%,10.196078%,19.607843%);fill-opacity:1;" d="M 253.125 403.125 L 253.125 421.875 L 262.5 421.875 L 262.5 412.5 L 271.875 412.5 L 271.875 403.125 Z M 253.125 403.125 "/>
<path style=" stroke:none;fill-rule:nonzero;fill:rgb(14.509804%,10.196078%,19.607843%);fill-opacity:1;" d="M 496.875 393.75 L 506.25 393.75 L 506.25 403.125 L 496.875 403.125 Z M 496.875 393.75 "/>
<path style=" stroke:none;fill-rule:nonzero;fill:rgb(14.509804%,10.196078%,19.607843%);fill-opacity:1;" d="M 328.125 393.75 L 318.75 393.75 L 318.75 403.125 L 337.5 403.125 L 337.5 384.375 L 328.125 384.375 Z M 328.125 393.75 "/>
<path style=" stroke:none;fill-rule:nonzero;fill:rgb(14.509804%,10.196078%,19.607843%);fill-opacity:1;" d="M 46.875 393.75 L 37.5 393.75 L 37.5 403.125 L 56.25 403.125 L 56.25 384.375 L 46.875 384.375 Z M 46.875 393.75 "/>
<path style=" stroke:none;fill-rule:nonzero;fill:rgb(14.509804%,10.196078%,19.607843%);fill-opacity:1;" d="M 421.875 337.5 L 431.25 337.5 L 431.25 346.875 L 421.875 346.875 Z M 421.875 337.5 "/>
<path style=" stroke:none;fill-rule:nonzero;fill:rgb(14.509804%,10.196078%,19.607843%);fill-opacity:1;" d="M 431.25 328.125 L 440.625 328.125 L 440.625 337.5 L 431.25 337.5 Z M 431.25 328.125 "/>
<path style=" stroke:none;fill-rule:nonzero;fill:rgb(14.509804%,10.196078%,19.607843%);fill-opacity:1;" d="M 403.125 318.75 L 412.5 318.75 L 412.5 328.125 L 403.125 328.125 Z M 403.125 318.75 "/>
<path style=" stroke:none;fill-rule:nonzero;fill:rgb(14.509804%,10.196078%,19.607843%);fill-opacity:1;" d="M 187.5 328.125 L 187.5 309.375 L 168.75 309.375 L 168.75 318.75 L 178.125 318.75 L 178.125 328.125 Z M 187.5 328.125 "/>
<path style=" stroke:none;fill-rule:nonzero;fill:rgb(14.509804%,10.196078%,19.607843%);fill-opacity:1;" d="M 412.5 309.375 L 421.875 309.375 L 421.875 318.75 L 412.5 318.75 Z M 412.5 309.375 "/>
<path style=" stroke:none;fill-rule:nonzero;fill:rgb(14.509804%,10.196078%,19.607843%);fill-opacity:1;" d="M 328.125 309.375 L 337.5 309.375 L 337.5 318.75 L 328.125 318.75 Z M 328.125 309.375 "/>
<path style=" stroke:none;fill-rule:nonzero;fill:rgb(14.509804%,10.196078%,19.607843%);fill-opacity:1;" d="M 253.125 300 L 262.5 300 L 262.5 309.375 L 253.125 309.375 Z M 253.125 300 "/>
<path style=" stroke:none;fill-rule:nonzero;fill:rgb(14.509804%,10.196078%,19.607843%);fill-opacity:1;" d="M 262.5 290.625 L 271.875 290.625 L 271.875 300 L 262.5 300 Z M 262.5 290.625 "/>
<path style=" stroke:none;fill-rule:nonzero;fill:rgb(14.509804%,10.196078%,19.607843%);fill-opacity:1;" d="M 37.5 281.25 L 46.875 281.25 L 46.875 290.625 L 37.5 290.625 Z M 37.5 281.25 "/>
<path style=" stroke:none;fill-rule:nonzero;fill:rgb(14.509804%,10.196078%,19.607843%);fill-opacity:1;" d="M 46.875 271.875 L 56.25 271.875 L 56.25 281.25 L 46.875 281.25 Z M 46.875 271.875 "/>
<path style=" stroke:none;fill-rule:nonzero;fill:rgb(14.509804%,10.196078%,19.607843%);fill-opacity:1;" d="M 337.5 253.125 L 328.125 253.125 L 328.125 243.75 L 318.75 243.75 L 318.75 262.5 L 337.5 262.5 Z M 337.5 253.125 "/>
<path style=" stroke:none;fill-rule:nonzero;fill:rgb(14.509804%,10.196078%,19.607843%);fill-opacity:1;" d="M 346.875 234.375 L 356.25 234.375 L 356.25 243.75 L 346.875 243.75 Z M 346.875 234.375 "/>
<path style=" stroke:none;fill-rule:nonzero;fill:rgb(14.509804%,10.196078%,19.607843%);fill-opacity:1;" d="M 337.5 225 L 346.875 225 L 346.875 234.375 L 337.5 234.375 Z M 337.5 225 "/>
<path style=" stroke:none;fill-rule:nonzero;fill:rgb(14.509804%,10.196078%,19.607843%);fill-opacity:1;" d="M 543.75 215.625 L 553.125 215.625 L 553.125 225 L 543.75 225 Z M 543.75 215.625 "/>
<path style=" stroke:none;fill-rule:nonzero;fill:rgb(14.509804%,10.196078%,19.607843%);fill-opacity:1;" d="M 534.375 206.25 L 543.75 206.25 L 543.75 215.625 L 534.375 215.625 Z M 534.375 206.25 "/>
<path style=" stroke:none;fill-rule:nonzero;fill:rgb(14.509804%,10.196078%,19.607843%);fill-opacity:1;" d="M 421.875 206.25 L 431.25 206.25 L 431.25 215.625 L 421.875 215.625 Z M 421.875 206.25 "/>
<path style=" stroke:none;fill-rule:nonzero;fill:rgb(14.509804%,10.196078%,19.607843%);fill-opacity:1;" d="M 562.5 196.875 L 571.875 196.875 L 571.875 206.25 L 562.5 206.25 Z M 562.5 196.875 "/>
<path style=" stroke:none;fill-rule:nonzero;fill:rgb(14.509804%,10.196078%,19.607843%);fill-opacity:1;" d="M 412.5 196.875 L 421.875 196.875 L 421.875 206.25 L 412.5 206.25 Z M 412.5 196.875 "/>
<path style=" stroke:none;fill-rule:nonzero;fill:rgb(14.509804%,10.196078%,19.607843%);fill-opacity:1;" d="M 553.125 187.5 L 562.5 187.5 L 562.5 196.875 L 553.125 196.875 Z M 553.125 187.5 "/>
<path style=" stroke:none;fill-rule:nonzero;fill:rgb(14.509804%,10.196078%,19.607843%);fill-opacity:1;" d="M 440.625 187.5 L 450 187.5 L 450 196.875 L 440.625 196.875 Z M 440.625 187.5 "/>
<path style=" stroke:none;fill-rule:nonzero;fill:rgb(14.509804%,10.196078%,19.607843%);fill-opacity:1;" d="M 431.25 178.125 L 440.625 178.125 L 440.625 187.5 L 431.25 187.5 Z M 431.25 178.125 "/>
<path style=" stroke:none;fill-rule:nonzero;fill:rgb(14.509804%,10.196078%,19.607843%);fill-opacity:1;" d="M 253.125 178.125 L 253.125 196.875 L 262.5 196.875 L 262.5 187.5 L 271.875 187.5 L 271.875 178.125 Z M 253.125 178.125 "/>
<path style=" stroke:none;fill-rule:nonzero;fill:rgb(14.509804%,10.196078%,19.607843%);fill-opacity:1;" d="M 337.5 159.375 L 328.125 159.375 L 328.125 168.75 L 318.75 168.75 L 318.75 178.125 L 337.5 178.125 Z M 337.5 159.375 "/>
<path style=" stroke:none;fill-rule:nonzero;fill:rgb(14.509804%,10.196078%,19.607843%);fill-opacity:1;" d="M 581.25 140.625 L 590.625 140.625 L 590.625 150 L 581.25 150 Z M 581.25 140.625 "/>
<path style=" stroke:none;fill-rule:nonzero;fill:rgb(14.509804%,10.196078%,19.607843%);fill-opacity:1;" d="M 590.625 131.25 L 600 131.25 L 600 140.625 L 590.625 140.625 Z M 590.625 131.25 "/>
<path style=" stroke:none;fill-rule:nonzero;fill:rgb(14.509804%,10.196078%,19.607843%);fill-opacity:1;" d="M 487.5 140.625 L 496.875 140.625 L 496.875 121.875 L 478.125 121.875 L 478.125 131.25 L 487.5 131.25 Z M 487.5 140.625 "/>
<path style=" stroke:none;fill-rule:nonzero;fill:rgb(14.509804%,10.196078%,19.607843%);fill-opacity:1;" d="M 562.5 121.875 L 571.875 121.875 L 571.875 131.25 L 562.5 131.25 Z M 562.5 121.875 "/>
<path style=" stroke:none;fill-rule:nonzero;fill:rgb(14.509804%,10.196078%,19.607843%);fill-opacity:1;" d="M 346.875 121.875 L 356.25 121.875 L 356.25 131.25 L 346.875 131.25 Z M 346.875 121.875 "/>
<path style=" stroke:none;fill-rule:nonzero;fill:rgb(14.509804%,10.196078%,19.607843%);fill-opacity:1;" d="M 93.75 121.875 L 103.125 121.875 L 103.125 131.25 L 93.75 131.25 Z M 93.75 121.875 "/>
<path style=" stroke:none;fill-rule:nonzero;fill:rgb(14.509804%,10.196078%,19.607843%);fill-opacity:1;" d="M 571.875 112.5 L 581.25 112.5 L 581.25 121.875 L 571.875 121.875 Z M 571.875 112.5 "/>
<path style=" stroke:none;fill-rule:nonzero;fill:rgb(14.509804%,10.196078%,19.607843%);fill-opacity:1;" d="M 337.5 112.5 L 346.875 112.5 L 346.875 121.875 L 337.5 121.875 Z M 337.5 112.5 "/>
<path style=" stroke:none;fill-rule:nonzero;fill:rgb(14.509804%,10.196078%,19.607843%);fill-opacity:1;" d="M 84.375 112.5 L 93.75 112.5 L 93.75 121.875 L 84.375 121.875 Z M 84.375 112.5 "/>
<path style=" stroke:none;fill-rule:nonzero;fill:rgb(14.509804%,10.196078%,19.607843%);fill-opacity:1;" d="M 365.625 103.125 L 375 103.125 L 375 112.5 L 365.625 112.5 Z M 365.625 103.125 "/>
<path style=" stroke:none;fill-rule:nonzero;fill:rgb(14.509804%,10.196078%,19.607843%);fill-opacity:1;" d="M 262.5 112.5 L 253.125 112.5 L 253.125 121.875 L 271.875 121.875 L 271.875 103.125 L 262.5 103.125 Z M 262.5 112.5 "/>
<path style=" stroke:none;fill-rule:nonzero;fill:rgb(14.509804%,10.196078%,19.607843%);fill-opacity:1;" d="M 112.5 103.125 L 121.875 103.125 L 121.875 112.5 L 112.5 112.5 Z M 112.5 103.125 "/>
<path style=" stroke:none;fill-rule:nonzero;fill:rgb(14.509804%,10.196078%,19.607843%);fill-opacity:1;" d="M 356.25 93.75 L 365.625 93.75 L 365.625 103.125 L 356.25 103.125 Z M 356.25 93.75 "/>
<path style=" stroke:none;fill-rule:nonzero;fill:rgb(14.509804%,10.196078%,19.607843%);fill-opacity:1;" d="M 103.125 93.75 L 112.5 93.75 L 112.5 103.125 L 103.125 103.125 Z M 103.125 93.75 "/>
<path style=" stroke:none;fill-rule:nonzero;fill:rgb(14.509804%,10.196078%,19.607843%);fill-opacity:1;" d="M 553.125 75 L 562.5 75 L 562.5 84.375 L 553.125 84.375 Z M 553.125 75 "/>
<path style=" stroke:none;fill-rule:nonzero;fill:rgb(14.509804%,10.196078%,19.607843%);fill-opacity:1;" d="M 543.75 65.625 L 553.125 65.625 L 553.125 75 L 543.75 75 Z M 543.75 65.625 "/>
<path style=" stroke:none;fill-rule:nonzero;fill:rgb(14.509804%,10.196078%,19.607843%);fill-opacity:1;" d="M 440.625 65.625 L 431.25 65.625 L 431.25 84.375 L 450 84.375 L 450 75 L 440.625 75 Z M 440.625 65.625 "/>
<path style=" stroke:none;fill-rule:nonzero;fill:rgb(14.509804%,10.196078%,19.607843%);fill-opacity:1;" d="M 328.125 46.875 L 337.5 46.875 L 337.5 56.25 L 328.125 56.25 Z M 328.125 46.875 "/>
<path style=" stroke:none;fill-rule:nonzero;fill:rgb(14.509804%,10.196078%,19.607843%);fill-opacity:1;" d="M 131.25 46.875 L 140.625 46.875 L 140.625 56.25 L 131.25 56.25 Z M 131.25 46.875 "/>
<path style=" stroke:none;fill-rule:nonzero;fill:rgb(14.509804%,10.196078%,19.607843%);fill-opacity:1;" d="M 337.5 37.5 L 346.875 37.5 L 346.875 46.875 L 337.5 46.875 Z M 337.5 37.5 "/>
<path style=" stroke:none;fill-rule:nonzero;fill:rgb(14.509804%,10.196078%,19.607843%);fill-opacity:1;" d="M 140.625 37.5 L 150 37.5 L 150 46.875 L 140.625 46.875 Z M 140.625 37.5 "/>
<path style=" stroke:none;fill-rule:nonzero;fill:rgb(14.509804%,10.196078%,19.607843%);fill-opacity:1;" d="M 37.5 46.875 L 46.875 46.875 L 46.875 28.125 L 28.125 28.125 L 28.125 37.5 L 37.5 37.5 Z M 37.5 46.875 "/>
<path style=" stroke:none;fill-rule:nonzero;fill:rgb(14.509804%,10.196078%,19.607843%);fill-opacity:1;" d="M 309.375 28.125 L 318.75 28.125 L 318.75 37.5 L 309.375 37.5 Z M 309.375 28.125 "/>
<path style=" stroke:none;fill-rule:nonzero;fill:rgb(14.509804%,10.196078%,19.607843%);fill-opacity:1;" d="M 112.5 28.125 L 121.875 28.125 L 121.875 37.5 L 112.5 37.5 Z M 112.5 28.125 "/>
<path style=" stroke:none;fill-rule:nonzero;fill:rgb(14.509804%,10.196078%,19.607843%);fill-opacity:1;" d="M 318.75 18.75 L 328.125 18.75 L 328.125 28.125 L 318.75 28.125 Z M 318.75 18.75 "/>
<path style=" stroke:none;fill-rule:nonzero;fill:rgb(14.509804%,10.196078%,19.607843%);fill-opacity:1;" d="M 159.375 18.75 L 168.75 18.75 L 168.75 28.125 L 159.375 28.125 Z M 159.375 18.75 "/>
<path style=" stroke:none;fill-rule:nonzero;fill:rgb(14.509804%,10.196078%,19.607843%);fill-opacity:1;" d="M 121.875 18.75 L 131.25 18.75 L 131.25 28.125 L 121.875 28.125 Z M 121.875 18.75 "/>
<path style=" stroke:none;fill-rule:nonzero;fill:rgb(14.509804%,10.196078%,19.607843%);fill-opacity:1;" d="M 150 9.375 L 159.375 9.375 L 159.375 18.75 L 150 18.75 Z M 150 9.375 "/>
<path style=" stroke:none;fill-rule:nonzero;fill:rgb(14.509804%,10.196078%,19.607843%);fill-opacity:1;" d="M 178.125 0 L 187.5 0 L 187.5 9.375 L 178.125 9.375 Z M 178.125 0 "/>
<path style=" stroke:none;fill-rule:nonzero;fill:rgb(22.352941%,13.72549%,26.27451%);fill-opacity:1;" d="M 187.5 590.625 L 196.875 590.625 L 196.875 600 L 187.5 600 Z M 187.5 590.625 "/>
<path style=" stroke:none;fill-rule:nonzero;fill:rgb(22.352941%,13.72549%,26.27451%);fill-opacity:1;" d="M 131.25 581.25 L 140.625 581.25 L 140.625 590.625 L 131.25 590.625 Z M 131.25 581.25 "/>
<path style=" stroke:none;fill-rule:nonzero;fill:rgb(22.352941%,13.72549%,26.27451%);fill-opacity:1;" d="M 206.25 571.875 L 215.625 571.875 L 215.625 581.25 L 206.25 581.25 Z M 206.25 571.875 "/>
<path style=" stroke:none;fill-rule:nonzero;fill:rgb(22.352941%,13.72549%,26.27451%);fill-opacity:1;" d="M 168.75 562.5 L 178.125 562.5 L 178.125 571.875 L 168.75 571.875 Z M 168.75 562.5 "/>
<path style=" stroke:none;fill-rule:nonzero;fill:rgb(22.352941%,13.72549%,26.27451%);fill-opacity:1;" d="M 534.375 553.125 L 543.75 553.125 L 543.75 562.5 L 534.375 562.5 Z M 534.375 553.125 "/>
<path style=" stroke:none;fill-rule:nonzero;fill:rgb(22.352941%,13.72549%,26.27451%);fill-opacity:1;" d="M 178.125 543.75 L 178.125 562.5 L 187.5 562.5 L 187.5 553.125 L 196.875 553.125 L 196.875 543.75 Z M 178.125 543.75 "/>
<path style=" stroke:none;fill-rule:nonzero;fill:rgb(22.352941%,13.72549%,26.27451%);fill-opacity:1;" d="M 196.875 534.375 L 206.25 534.375 L 206.25 543.75 L 196.875 543.75 Z M 196.875 534.375 "/>
<path style=" stroke:none;fill-rule:nonzero;fill:rgb(22.352941%,13.72549%,26.27451%);fill-opacity:1;" d="M 262.5 525 L 271.875 525 L 271.875 534.375 L 262.5 534.375 Z M 262.5 525 "/>
<path style=" stroke:none;fill-rule:nonzero;fill:rgb(22.352941%,13.72549%,26.27451%);fill-opacity:1;" d="M 93.75 515.625 L 112.5 515.625 L 112.5 534.375 L 93.75 534.375 Z M 93.75 515.625 "/>
<path style=" stroke:none;fill-rule:nonzero;fill:rgb(22.352941%,13.72549%,26.27451%);fill-opacity:1;" d="M 243.75 506.25 L 262.5 506.25 L 262.5 525 L 243.75 525 Z M 243.75 506.25 "/>
<path style=" stroke:none;fill-rule:nonzero;fill:rgb(22.352941%,13.72549%,26.27451%);fill-opacity:1;" d="M 178.125 506.25 L 187.5 506.25 L 187.5 515.625 L 178.125 515.625 Z M 178.125 506.25 "/>
<path style=" stroke:none;fill-rule:nonzero;fill:rgb(22.352941%,13.72549%,26.27451%);fill-opacity:1;" d="M 131.25 515.625 L 131.25 496.875 L 112.5 496.875 L 112.5 506.25 L 121.875 506.25 L 121.875 515.625 Z M 131.25 515.625 "/>
<path style=" stroke:none;fill-rule:nonzero;fill:rgb(22.352941%,13.72549%,26.27451%);fill-opacity:1;" d="M 459.375 496.875 L 468.75 496.875 L 468.75 506.25 L 459.375 506.25 Z M 459.375 496.875 "/>
<path style=" stroke:none;fill-rule:nonzero;fill:rgb(22.352941%,13.72549%,26.27451%);fill-opacity:1;" d="M 478.125 487.5 L 468.75 487.5 L 468.75 496.875 L 487.5 496.875 L 487.5 478.125 L 478.125 478.125 Z M 478.125 487.5 "/>
<path style=" stroke:none;fill-rule:nonzero;fill:rgb(22.352941%,13.72549%,26.27451%);fill-opacity:1;" d="M 375 478.125 L 384.375 478.125 L 384.375 487.5 L 375 487.5 Z M 375 478.125 "/>
<path style=" stroke:none;fill-rule:nonzero;fill:rgb(22.352941%,13.72549%,26.27451%);fill-opacity:1;" d="M 46.875 478.125 L 65.625 478.125 L 65.625 496.875 L 46.875 496.875 Z M 46.875 478.125 "/>
<path style=" stroke:none;fill-rule:nonzero;fill:rgb(22.352941%,13.72549%,26.27451%);fill-opacity:1;" d="M 487.5 468.75 L 496.875 468.75 L 496.875 478.125 L 487.5 478.125 Z M 487.5 468.75 "/>
<path style=" stroke:none;fill-rule:nonzero;fill:rgb(22.352941%,13.72549%,26.27451%);fill-opacity:1;" d="M 37.5 468.75 L 46.875 468.75 L 46.875 478.125 L 37.5 478.125 Z M 37.5 468.75 "/>
<path style=" stroke:none;fill-rule:nonzero;fill:rgb(22.352941%,13.72549%,26.27451%);fill-opacity:1;" d="M 337.5 459.375 L 328.125 459.375 L 328.125 478.125 L 346.875 478.125 L 346.875 468.75 L 337.5 468.75 Z M 337.5 459.375 "/>
<path style=" stroke:none;fill-rule:nonzero;fill:rgb(22.352941%,13.72549%,26.27451%);fill-opacity:1;" d="M 440.625 450 L 450 450 L 450 459.375 L 440.625 459.375 Z M 440.625 450 "/>
<path style=" stroke:none;fill-rule:nonzero;fill:rgb(22.352941%,13.72549%,26.27451%);fill-opacity:1;" d="M 196.875 450 L 215.625 450 L 215.625 468.75 L 196.875 468.75 Z M 196.875 450 "/>
<path style=" stroke:none;fill-rule:nonzero;fill:rgb(22.352941%,13.72549%,26.27451%);fill-opacity:1;" d="M 346.875 440.625 L 365.625 440.625 L 365.625 459.375 L 346.875 459.375 Z M 346.875 440.625 "/>
<path style=" stroke:none;fill-rule:nonzero;fill:rgb(22.352941%,13.72549%,26.27451%);fill-opacity:1;" d="M 187.5 440.625 L 196.875 440.625 L 196.875 450 L 187.5 450 Z M 187.5 440.625 "/>
<path style=" stroke:none;fill-rule:nonzero;fill:rgb(22.352941%,13.72549%,26.27451%);fill-opacity:1;" d="M 253.125 431.25 L 262.5 431.25 L 262.5 440.625 L 253.125 440.625 Z M 253.125 431.25 "/>
<path style=" stroke:none;fill-rule:nonzero;fill:rgb(22.352941%,13.72549%,26.27451%);fill-opacity:1;" d="M 515.625 421.875 L 525 421.875 L 525 431.25 L 515.625 431.25 Z M 515.625 421.875 "/>
<path style=" stroke:none;fill-rule:nonzero;fill:rgb(22.352941%,13.72549%,26.27451%);fill-opacity:1;" d="M 37.5 421.875 L 46.875 421.875 L 46.875 431.25 L 37.5 431.25 Z M 37.5 421.875 "/>
<path style=" stroke:none;fill-rule:nonzero;fill:rgb(22.352941%,13.72549%,26.27451%);fill-opacity:1;" d="M 393.75 412.5 L 412.5 412.5 L 412.5 431.25 L 393.75 431.25 Z M 393.75 412.5 "/>
<path style=" stroke:none;fill-rule:nonzero;fill:rgb(22.352941%,13.72549%,26.27451%);fill-opacity:1;" d="M 271.875 421.875 L 262.5 421.875 L 262.5 431.25 L 281.25 431.25 L 281.25 412.5 L 271.875 412.5 Z M 271.875 421.875 "/>
<path style=" stroke:none;fill-rule:nonzero;fill:rgb(22.352941%,13.72549%,26.27451%);fill-opacity:1;" d="M 515.625 403.125 L 496.875 403.125 L 496.875 412.5 L 506.25 412.5 L 506.25 421.875 L 515.625 421.875 Z M 515.625 403.125 "/>
<path style=" stroke:none;fill-rule:nonzero;fill:rgb(22.352941%,13.72549%,26.27451%);fill-opacity:1;" d="M 281.25 403.125 L 290.625 403.125 L 290.625 412.5 L 281.25 412.5 Z M 281.25 403.125 "/>
<path style=" stroke:none;fill-rule:nonzero;fill:rgb(22.352941%,13.72549%,26.27451%);fill-opacity:1;" d="M 56.25 403.125 L 65.625 403.125 L 65.625 412.5 L 56.25 412.5 Z M 56.25 403.125 "/>
<path style=" stroke:none;fill-rule:nonzero;fill:rgb(22.352941%,13.72549%,26.27451%);fill-opacity:1;" d="M 487.5 393.75 L 496.875 393.75 L 496.875 403.125 L 487.5 403.125 Z M 487.5 393.75 "/>
<path style=" stroke:none;fill-rule:nonzero;fill:rgb(22.352941%,13.72549%,26.27451%);fill-opacity:1;" d="M 18.75 393.75 L 28.125 393.75 L 28.125 403.125 L 18.75 403.125 Z M 18.75 393.75 "/>
<path style=" stroke:none;fill-rule:nonzero;fill:rgb(22.352941%,13.72549%,26.27451%);fill-opacity:1;" d="M 318.75 384.375 L 328.125 384.375 L 328.125 393.75 L 318.75 393.75 Z M 318.75 384.375 "/>
<path style=" stroke:none;fill-rule:nonzero;fill:rgb(22.352941%,13.72549%,26.27451%);fill-opacity:1;" d="M 140.625 384.375 L 150 384.375 L 150 393.75 L 140.625 393.75 Z M 140.625 384.375 "/>
<path style=" stroke:none;fill-rule:nonzero;fill:rgb(22.352941%,13.72549%,26.27451%);fill-opacity:1;" d="M 37.5 384.375 L 46.875 384.375 L 46.875 375 L 28.125 375 L 28.125 393.75 L 37.5 393.75 Z M 37.5 384.375 "/>
<path style=" stroke:none;fill-rule:nonzero;fill:rgb(22.352941%,13.72549%,26.27451%);fill-opacity:1;" d="M 46.875 365.625 L 56.25 365.625 L 56.25 375 L 46.875 375 Z M 46.875 365.625 "/>
<path style=" stroke:none;fill-rule:nonzero;fill:rgb(22.352941%,13.72549%,26.27451%);fill-opacity:1;" d="M 431.25 337.5 L 440.625 337.5 L 440.625 346.875 L 431.25 346.875 Z M 431.25 337.5 "/>
<path style=" stroke:none;fill-rule:nonzero;fill:rgb(22.352941%,13.72549%,26.27451%);fill-opacity:1;" d="M 178.125 337.5 L 187.5 337.5 L 187.5 346.875 L 178.125 346.875 Z M 178.125 337.5 "/>
<path style=" stroke:none;fill-rule:nonzero;fill:rgb(22.352941%,13.72549%,26.27451%);fill-opacity:1;" d="M 28.125 337.5 L 37.5 337.5 L 37.5 346.875 L 28.125 346.875 Z M 28.125 337.5 "/>
<path style=" stroke:none;fill-rule:nonzero;fill:rgb(22.352941%,13.72549%,26.27451%);fill-opacity:1;" d="M 412.5 337.5 L 431.25 337.5 L 431.25 328.125 L 421.875 328.125 L 421.875 318.75 L 412.5 318.75 Z M 412.5 337.5 "/>
<path style=" stroke:none;fill-rule:nonzero;fill:rgb(22.352941%,13.72549%,26.27451%);fill-opacity:1;" d="M 178.125 337.5 L 178.125 328.125 L 168.75 328.125 L 168.75 318.75 L 159.375 318.75 L 159.375 337.5 Z M 178.125 337.5 "/>
<path style=" stroke:none;fill-rule:nonzero;fill:rgb(22.352941%,13.72549%,26.27451%);fill-opacity:1;" d="M 403.125 309.375 L 412.5 309.375 L 412.5 318.75 L 403.125 318.75 Z M 403.125 309.375 "/>
<path style=" stroke:none;fill-rule:nonzero;fill:rgb(22.352941%,13.72549%,26.27451%);fill-opacity:1;" d="M 262.5 300 L 271.875 300 L 271.875 309.375 L 262.5 309.375 Z M 262.5 300 "/>
<path style=" stroke:none;fill-rule:nonzero;fill:rgb(22.352941%,13.72549%,26.27451%);fill-opacity:1;" d="M 243.75 281.25 L 262.5 281.25 L 262.5 300 L 243.75 300 Z M 243.75 281.25 "/>
<path style=" stroke:none;fill-rule:nonzero;fill:rgb(22.352941%,13.72549%,26.27451%);fill-opacity:1;" d="M 46.875 281.25 L 65.625 281.25 L 65.625 300 L 46.875 300 Z M 46.875 281.25 "/>
<path style=" stroke:none;fill-rule:nonzero;fill:rgb(22.352941%,13.72549%,26.27451%);fill-opacity:1;" d="M 37.5 271.875 L 46.875 271.875 L 46.875 281.25 L 37.5 281.25 Z M 37.5 271.875 "/>
<path style=" stroke:none;fill-rule:nonzero;fill:rgb(22.352941%,13.72549%,26.27451%);fill-opacity:1;" d="M 328.125 234.375 L 328.125 253.125 L 346.875 253.125 L 346.875 243.75 L 337.5 243.75 L 337.5 234.375 Z M 328.125 234.375 "/>
<path style=" stroke:none;fill-rule:nonzero;fill:rgb(22.352941%,13.72549%,26.27451%);fill-opacity:1;" d="M 168.75 234.375 L 178.125 234.375 L 178.125 243.75 L 168.75 243.75 Z M 168.75 234.375 "/>
<path style=" stroke:none;fill-rule:nonzero;fill:rgb(22.352941%,13.72549%,26.27451%);fill-opacity:1;" d="M 534.375 215.625 L 543.75 215.625 L 543.75 225 L 534.375 225 Z M 534.375 215.625 "/>
<path style=" stroke:none;fill-rule:nonzero;fill:rgb(22.352941%,13.72549%,26.27451%);fill-opacity:1;" d="M 346.875 215.625 L 365.625 215.625 L 365.625 234.375 L 346.875 234.375 Z M 346.875 215.625 "/>
<path style=" stroke:none;fill-rule:nonzero;fill:rgb(22.352941%,13.72549%,26.27451%);fill-opacity:1;" d="M 412.5 206.25 L 421.875 206.25 L 421.875 215.625 L 412.5 215.625 Z M 412.5 206.25 "/>
<path style=" stroke:none;fill-rule:nonzero;fill:rgb(22.352941%,13.72549%,26.27451%);fill-opacity:1;" d="M 253.125 206.25 L 262.5 206.25 L 262.5 215.625 L 253.125 215.625 Z M 253.125 206.25 "/>
<path style=" stroke:none;fill-rule:nonzero;fill:rgb(22.352941%,13.72549%,26.27451%);fill-opacity:1;" d="M 553.125 206.25 L 543.75 206.25 L 543.75 215.625 L 562.5 215.625 L 562.5 196.875 L 553.125 196.875 Z M 553.125 206.25 "/>
<path style=" stroke:none;fill-rule:nonzero;fill:rgb(22.352941%,13.72549%,26.27451%);fill-opacity:1;" d="M 450 196.875 L 459.375 196.875 L 459.375 206.25 L 450 206.25 Z M 450 196.875 "/>
<path style=" stroke:none;fill-rule:nonzero;fill:rgb(22.352941%,13.72549%,26.27451%);fill-opacity:1;" d="M 440.625 206.25 L 440.625 187.5 L 431.25 187.5 L 431.25 196.875 L 421.875 196.875 L 421.875 206.25 Z M 440.625 206.25 "/>
<path style=" stroke:none;fill-rule:nonzero;fill:rgb(22.352941%,13.72549%,26.27451%);fill-opacity:1;" d="M 562.5 187.5 L 571.875 187.5 L 571.875 196.875 L 562.5 196.875 Z M 562.5 187.5 "/>
<path style=" stroke:none;fill-rule:nonzero;fill:rgb(22.352941%,13.72549%,26.27451%);fill-opacity:1;" d="M 271.875 196.875 L 262.5 196.875 L 262.5 206.25 L 281.25 206.25 L 281.25 187.5 L 271.875 187.5 Z M 271.875 196.875 "/>
<path style=" stroke:none;fill-rule:nonzero;fill:rgb(22.352941%,13.72549%,26.27451%);fill-opacity:1;" d="M 515.625 178.125 L 525 178.125 L 525 187.5 L 515.625 187.5 Z M 515.625 178.125 "/>
<path style=" stroke:none;fill-rule:nonzero;fill:rgb(22.352941%,13.72549%,26.27451%);fill-opacity:1;" d="M 440.625 178.125 L 450 178.125 L 450 187.5 L 440.625 187.5 Z M 440.625 178.125 "/>
<path style=" stroke:none;fill-rule:nonzero;fill:rgb(22.352941%,13.72549%,26.27451%);fill-opacity:1;" d="M 281.25 178.125 L 290.625 178.125 L 290.625 187.5 L 281.25 187.5 Z M 281.25 178.125 "/>
<path style=" stroke:none;fill-rule:nonzero;fill:rgb(22.352941%,13.72549%,26.27451%);fill-opacity:1;" d="M 318.75 159.375 L 328.125 159.375 L 328.125 168.75 L 318.75 168.75 Z M 318.75 159.375 "/>
<path style=" stroke:none;fill-rule:nonzero;fill:rgb(22.352941%,13.72549%,26.27451%);fill-opacity:1;" d="M 590.625 140.625 L 600 140.625 L 600 150 L 590.625 150 Z M 590.625 140.625 "/>
<path style=" stroke:none;fill-rule:nonzero;fill:rgb(22.352941%,13.72549%,26.27451%);fill-opacity:1;" d="M 468.75 131.25 L 487.5 131.25 L 487.5 150 L 468.75 150 Z M 468.75 131.25 "/>
<path style=" stroke:none;fill-rule:nonzero;fill:rgb(22.352941%,13.72549%,26.27451%);fill-opacity:1;" d="M 590.625 121.875 L 571.875 121.875 L 571.875 131.25 L 581.25 131.25 L 581.25 140.625 L 590.625 140.625 Z M 590.625 121.875 "/>
<path style=" stroke:none;fill-rule:nonzero;fill:rgb(22.352941%,13.72549%,26.27451%);fill-opacity:1;" d="M 337.5 121.875 L 346.875 121.875 L 346.875 131.25 L 337.5 131.25 Z M 337.5 121.875 "/>
<path style=" stroke:none;fill-rule:nonzero;fill:rgb(22.352941%,13.72549%,26.27451%);fill-opacity:1;" d="M 84.375 121.875 L 93.75 121.875 L 93.75 131.25 L 84.375 131.25 Z M 84.375 121.875 "/>
<path style=" stroke:none;fill-rule:nonzero;fill:rgb(22.352941%,13.72549%,26.27451%);fill-opacity:1;" d="M 562.5 112.5 L 571.875 112.5 L 571.875 121.875 L 562.5 121.875 Z M 562.5 112.5 "/>
<path style=" stroke:none;fill-rule:nonzero;fill:rgb(22.352941%,13.72549%,26.27451%);fill-opacity:1;" d="M 112.5 121.875 L 112.5 103.125 L 103.125 103.125 L 103.125 112.5 L 93.75 112.5 L 93.75 121.875 Z M 112.5 121.875 "/>
<path style=" stroke:none;fill-rule:nonzero;fill:rgb(22.352941%,13.72549%,26.27451%);fill-opacity:1;" d="M 356.25 112.5 L 346.875 112.5 L 346.875 121.875 L 365.625 121.875 L 365.625 103.125 L 356.25 103.125 Z M 356.25 112.5 "/>
<path style=" stroke:none;fill-rule:nonzero;fill:rgb(22.352941%,13.72549%,26.27451%);fill-opacity:1;" d="M 243.75 93.75 L 262.5 93.75 L 262.5 112.5 L 243.75 112.5 Z M 243.75 93.75 "/>
<path style=" stroke:none;fill-rule:nonzero;fill:rgb(22.352941%,13.72549%,26.27451%);fill-opacity:1;" d="M 0 103.125 L 9.375 103.125 L 9.375 112.5 L 0 112.5 Z M 0 103.125 "/>
<path style=" stroke:none;fill-rule:nonzero;fill:rgb(22.352941%,13.72549%,26.27451%);fill-opacity:1;" d="M 365.625 93.75 L 375 93.75 L 375 103.125 L 365.625 103.125 Z M 365.625 93.75 "/>
<path style=" stroke:none;fill-rule:nonzero;fill:rgb(22.352941%,13.72549%,26.27451%);fill-opacity:1;" d="M 112.5 93.75 L 121.875 93.75 L 121.875 103.125 L 112.5 103.125 Z M 112.5 93.75 "/>
<path style=" stroke:none;fill-rule:nonzero;fill:rgb(22.352941%,13.72549%,26.27451%);fill-opacity:1;" d="M 534.375 75 L 553.125 75 L 553.125 93.75 L 534.375 93.75 Z M 534.375 75 "/>
<path style=" stroke:none;fill-rule:nonzero;fill:rgb(22.352941%,13.72549%,26.27451%);fill-opacity:1;" d="M 421.875 84.375 L 431.25 84.375 L 431.25 93.75 L 421.875 93.75 Z M 421.875 84.375 "/>
<path style=" stroke:none;fill-rule:nonzero;fill:rgb(22.352941%,13.72549%,26.27451%);fill-opacity:1;" d="M 459.375 75 L 468.75 75 L 468.75 84.375 L 459.375 84.375 Z M 459.375 75 "/>
<path style=" stroke:none;fill-rule:nonzero;fill:rgb(22.352941%,13.72549%,26.27451%);fill-opacity:1;" d="M 553.125 65.625 L 562.5 65.625 L 562.5 75 L 553.125 75 Z M 553.125 65.625 "/>
<path style=" stroke:none;fill-rule:nonzero;fill:rgb(22.352941%,13.72549%,26.27451%);fill-opacity:1;" d="M 403.125 65.625 L 412.5 65.625 L 412.5 75 L 403.125 75 Z M 403.125 65.625 "/>
<path style=" stroke:none;fill-rule:nonzero;fill:rgb(22.352941%,13.72549%,26.27451%);fill-opacity:1;" d="M 487.5 56.25 L 496.875 56.25 L 496.875 65.625 L 487.5 65.625 Z M 487.5 56.25 "/>
<path style=" stroke:none;fill-rule:nonzero;fill:rgb(22.352941%,13.72549%,26.27451%);fill-opacity:1;" d="M 450 65.625 L 450 75 L 459.375 75 L 459.375 56.25 L 440.625 56.25 L 440.625 65.625 Z M 450 65.625 "/>
<path style=" stroke:none;fill-rule:nonzero;fill:rgb(22.352941%,13.72549%,26.27451%);fill-opacity:1;" d="M 431.25 46.875 L 440.625 46.875 L 440.625 56.25 L 431.25 56.25 Z M 431.25 46.875 "/>
<path style=" stroke:none;fill-rule:nonzero;fill:rgb(22.352941%,13.72549%,26.27451%);fill-opacity:1;" d="M 337.5 46.875 L 346.875 46.875 L 346.875 56.25 L 337.5 56.25 Z M 337.5 46.875 "/>
<path style=" stroke:none;fill-rule:nonzero;fill:rgb(22.352941%,13.72549%,26.27451%);fill-opacity:1;" d="M 140.625 46.875 L 150 46.875 L 150 56.25 L 140.625 56.25 Z M 140.625 46.875 "/>
<path style=" stroke:none;fill-rule:nonzero;fill:rgb(22.352941%,13.72549%,26.27451%);fill-opacity:1;" d="M 18.75 37.5 L 37.5 37.5 L 37.5 56.25 L 18.75 56.25 Z M 18.75 37.5 "/>
<path style=" stroke:none;fill-rule:nonzero;fill:rgb(22.352941%,13.72549%,26.27451%);fill-opacity:1;" d="M 225 37.5 L 234.375 37.5 L 234.375 46.875 L 225 46.875 Z M 225 37.5 "/>
<path style=" stroke:none;fill-rule:nonzero;fill:rgb(22.352941%,13.72549%,26.27451%);fill-opacity:1;" d="M 403.125 37.5 L 412.5 37.5 L 412.5 28.125 L 421.875 28.125 L 421.875 18.75 L 412.5 18.75 L 412.5 9.375 L 403.125 9.375 L 403.125 18.75 L 393.75 18.75 L 393.75 28.125 L 403.125 28.125 Z M 403.125 37.5 "/>
<path style=" stroke:none;fill-rule:nonzero;fill:rgb(22.352941%,13.72549%,26.27451%);fill-opacity:1;" d="M 328.125 37.5 L 328.125 46.875 L 337.5 46.875 L 337.5 28.125 L 318.75 28.125 L 318.75 37.5 Z M 328.125 37.5 "/>
<path style=" stroke:none;fill-rule:nonzero;fill:rgb(22.352941%,13.72549%,26.27451%);fill-opacity:1;" d="M 140.625 28.125 L 121.875 28.125 L 121.875 37.5 L 131.25 37.5 L 131.25 46.875 L 140.625 46.875 Z M 140.625 28.125 "/>
<path style=" stroke:none;fill-rule:nonzero;fill:rgb(22.352941%,13.72549%,26.27451%);fill-opacity:1;" d="M 553.125 18.75 L 562.5 18.75 L 562.5 28.125 L 553.125 28.125 Z M 553.125 18.75 "/>
<path style=" stroke:none;fill-rule:nonzero;fill:rgb(22.352941%,13.72549%,26.27451%);fill-opacity:1;" d="M 309.375 18.75 L 318.75 18.75 L 318.75 28.125 L 309.375 28.125 Z M 309.375 18.75 "/>
<path style=" stroke:none;fill-rule:nonzero;fill:rgb(22.352941%,13.72549%,26.27451%);fill-opacity:1;" d="M 150 18.75 L 159.375 18.75 L 159.375 28.125 L 150 28.125 Z M 150 18.75 "/>
<path style=" stroke:none;fill-rule:nonzero;fill:rgb(22.352941%,13.72549%,26.27451%);fill-opacity:1;" d="M 112.5 18.75 L 121.875 18.75 L 121.875 28.125 L 112.5 28.125 Z M 112.5 18.75 "/>
<path style=" stroke:none;fill-rule:nonzero;fill:rgb(22.352941%,13.72549%,26.27451%);fill-opacity:1;" d="M 168.75 9.375 L 178.125 9.375 L 178.125 0 L 159.375 0 L 159.375 18.75 L 168.75 18.75 Z M 168.75 9.375 "/>
<path style=" stroke:none;fill-rule:nonzero;fill:rgb(9.411765%,7.843137%,14.509804%);fill-opacity:1;" d="M 440.625 440.625 L 450 440.625 L 450 450 L 440.625 450 Z M 440.625 440.625 "/>
<path style=" stroke:none;fill-rule:nonzero;fill:rgb(9.411765%,7.843137%,14.509804%);fill-opacity:1;" d="M 178.125 328.125 L 187.5 328.125 L 187.5 337.5 L 178.125 337.5 Z M 178.125 328.125 "/>
</g>
</svg>