<?xml version="1.0" encoding="UTF-8"?>
<svg xmlns="http://www.w3.org/2000/svg" xmlns:xlink="http://www.w3.org/1999/xlink" width="1000pt" height="600pt" viewBox="0 0 1000 600" version="1.1">
<g id="surface1">
<rect x="0" y="0" width="1000" height="600" style="fill:rgb(9.411765%,7.45098%,15.686275%);fill-opacity:1;stroke:none;"/>
<path style=" stroke:none;fill-rule:nonzero;fill:rgb(54.509804%,60.784314%,70.588235%);fill-opacity:1;" d="M 250 590.625 L 265.625 590.625 L 265.625 600 L 250 600 Z M 250 590.625 "/>
<path style=" stroke:none;fill-rule:nonzero;fill:rgb(35.294118%,41.176471%,53.333333%);fill-opacity:1;" d="M 953.125 553.125 L 968.75 553.125 L 968.75 562.5 L 953.125 562.5 Z M 953.125 553.125 "/>
<path style=" stroke:none;fill-rule:nonzero;fill:rgb(14.901961%,16.862745%,26.666667%);fill-opacity:1;" d="M 937.5 525 L 953.125 525 L 953.125 534.375 L 937.5 534.375 Z M 937.5 525 "/>
<path style=" stroke:none;fill-rule:nonzero;fill:rgb(14.901961%,16.862745%,26.666667%);fill-opacity:1;" d="M 859.375 515.625 L 875 515.625 L 875 525 L 859.375 525 Z M 859.375 515.625 "/>
<path style=" stroke:none;fill-rule:nonzero;fill:rgb(14.901961%,16.862745%,26.666667%);fill-opacity:1;" d="M 593.75 506.25 L 609.375 506.25 L 609.375 515.625 L 593.75 515.625 Z M 593.75 506.25 "/>
<path style=" stroke:none;fill-rule:nonzero;fill:rgb(54.509804%,60.784314%,70.588235%);fill-opacity:1;" d="M 171.875 506.25 L 187.5 506.25 L 187.5 515.625 L 171.875 515.625 Z M 171.875 506.25 "/>
<path style=" stroke:none;fill-rule:nonzero;fill:rgb(35.294118%,41.176471%,53.333333%);fill-opacity:1;" d="M 453.125 478.125 L 468.75 478.125 L 468.75 487.5 L 453.125 487.5 Z M 453.125 478.125 "/>
<path style=" stroke:none;fill-rule:nonzero;fill:rgb(35.294118%,41.176471%,53.333333%);fill-opacity:1;" d="M 921.875 468.75 L 937.5 468.75 L 937.5 478.125 L 921.875 478.125 Z M 921.875 468.75 "/>
<path style=" stroke:none;fill-rule:nonzero;fill:rgb(22.745098%,26.666667%,40%);fill-opacity:1;" d="M 828.125 459.375 L 843.75 459.375 L 843.75 468.75 L 828.125 468.75 Z M 828.125 459.375 "/>
<path style=" stroke:none;fill-rule:nonzero;fill:rgb(35.294118%,41.176471%,53.333333%);fill-opacity:1;" d="M 531.25 440.625 L 546.875 440.625 L 546.875 450 L 531.25 450 Z M 531.25 440.625 "/>
<path style=" stroke:none;fill-rule:nonzero;fill:rgb(14.901961%,16.862745%,26.666667%);fill-opacity:1;" d="M 31.25 421.875 L 46.875 421.875 L 46.875 431.25 L 31.25 431.25 Z M 31.25 421.875 "/>
<path style=" stroke:none;fill-rule:nonzero;fill:rgb(54.509804%,60.784314%,70.588235%);fill-opacity:1;" d="M 671.875 412.5 L 687.5 412.5 L 687.5 421.875 L 671.875 421.875 Z M 671.875 412.5 "/>
<path style=" stroke:none;fill-rule:nonzero;fill:rgb(35.294118%,41.176471%,53.333333%);fill-opacity:1;" d="M 453.125 403.125 L 468.75 403.125 L 468.75 412.5 L 453.125 412.5 Z M 453.125 403.125 "/>
<path style=" stroke:none;fill-rule:nonzero;fill:rgb(35.294118%,41.176471%,53.333333%);fill-opacity:1;" d="M 281.25 403.125 L 296.875 403.125 L 296.875 412.5 L 281.25 412.5 Z M 281.25 403.125 "/>
<path style=" stroke:none;fill-rule:nonzero;fill:rgb(35.294118%,41.176471%,53.333333%);fill-opacity:1;" d="M 796.875 393.75 L 812.5 393.75 L 812.5 403.125 L 796.875 403.125 Z M 796.875 393.75 "/>
<path style=" stroke:none;fill-rule:nonzero;fill:rgb(14.901961%,16.862745%,26.666667%);fill-opacity:1;" d="M 250 393.75 L 265.625 393.75 L 265.625 403.125 L 250 403.125 Z M 250 393.75 "/>
<path style=" stroke:none;fill-rule:nonzero;fill:rgb(14.901961%,16.862745%,26.666667%);fill-opacity:1;" d="M 718.75 375 L 734.375 375 L 734.375 384.375 L 718.75 384.375 Z M 718.75 375 "/>
<path style=" stroke:none;fill-rule:nonzero;fill:rgb(14.901961%,16.862745%,26.666667%);fill-opacity:1;" d="M 921.875 356.25 L 937.5 356.25 L 937.5 365.625 L 921.875 365.625 Z M 921.875 356.25 "/>
<path style=" stroke:none;fill-rule:nonzero;fill:rgb(91.372549%,89.803922%,88.235294%);fill-opacity:1;" d="M 687.5 346.875 L 703.125 346.875 L 703.125 356.25 L 687.5 356.25 Z M 687.5 346.875 "/>
<path style=" stroke:none;fill-rule:nonzero;fill:rgb(35.294118%,41.176471%,53.333333%);fill-opacity:1;" d="M 953.125 337.5 L 968.75 337.5 L 968.75 346.875 L 953.125 346.875 Z M 953.125 337.5 "/>
<path style=" stroke:none;fill-rule:nonzero;fill:rgb(14.901961%,16.862745%,26.666667%);fill-opacity:1;" d="M 578.125 309.375 L 593.75 309.375 L 593.75 318.75 L 578.125 318.75 Z M 578.125 309.375 "/>
<path style=" stroke:none;fill-rule:nonzero;fill:rgb(22.745098%,26.666667%,40%);fill-opacity:1;" d="M 515.625 309.375 L 531.25 309.375 L 531.25 318.75 L 515.625 318.75 Z M 515.625 309.375 "/>
<path style=" stroke:none;fill-rule:nonzero;fill:rgb(14.901961%,16.862745%,26.666667%);fill-opacity:1;" d="M 250 290.625 L 265.625 290.625 L 265.625 300 L 250 300 Z M 250 290.625 "/>
<path style=" stroke:none;fill-rule:nonzero;fill:rgb(75.294118%,79.607843%,86.27451%);fill-opacity:1;" d="M 171.875 290.625 L 187.5 290.625 L 187.5 300 L 171.875 300 Z M 171.875 290.625 "/>
<path style=" stroke:none;fill-rule:nonzero;fill:rgb(14.901961%,16.862745%,26.666667%);fill-opacity:1;" d="M 593.75 262.5 L 609.375 262.5 L 609.375 271.875 L 593.75 271.875 Z M 593.75 262.5 "/>
<path style=" stroke:none;fill-rule:nonzero;fill:rgb(22.745098%,26.666667%,40%);fill-opacity:1;" d="M 765.625 253.125 L 781.25 253.125 L 781.25 262.5 L 765.625 262.5 Z M 765.625 253.125 "/>
<path style=" stroke:none;fill-rule:nonzero;fill:rgb(54.509804%,60.784314%,70.588235%);fill-opacity:1;" d="M 718.75 243.75 L 734.375 243.75 L 734.375 253.125 L 718.75 253.125 Z M 718.75 243.75 "/>
<path style=" stroke:none;fill-rule:nonzero;fill:rgb(35.294118%,41.176471%,53.333333%);fill-opacity:1;" d="M 296.875 243.75 L 312.5 243.75 L 312.5 253.125 L 296.875 253.125 Z M 296.875 243.75 "/>
<path style=" stroke:none;fill-rule:nonzero;fill:rgb(54.509804%,60.784314%,70.588235%);fill-opacity:1;" d="M 562.5 225 L 578.125 225 L 578.125 234.375 L 562.5 234.375 Z M 562.5 225 "/>
<path style=" stroke:none;fill-rule:nonzero;fill:rgb(14.901961%,16.862745%,26.666667%);fill-opacity:1;" d="M 906.25 215.625 L 921.875 215.625 L 921.875 225 L 906.25 225 Z M 906.25 215.625 "/>
<path style=" stroke:none;fill-rule:nonzero;fill:rgb(54.509804%,60.784314%,70.588235%);fill-opacity:1;" d="M 812.5 206.25 L 828.125 206.25 L 828.125 215.625 L 812.5 215.625 Z M 812.5 206.25 "/>
<path style=" stroke:none;fill-rule:nonzero;fill:rgb(22.745098%,26.666667%,40%);fill-opacity:1;" d="M 46.875 150 L 62.5 150 L 62.5 159.375 L 46.875 159.375 Z M 46.875 150 "/>
<path style=" stroke:none;fill-rule:nonzero;fill:rgb(22.745098%,26.666667%,40%);fill-opacity:1;" d="M 796.875 140.625 L 812.5 140.625 L 812.5 150 L 796.875 150 Z M 796.875 140.625 "/>
<path style=" stroke:none;fill-rule:nonzero;fill:rgb(14.901961%,16.862745%,26.666667%);fill-opacity:1;" d="M 500 140.625 L 515.625 140.625 L 515.625 150 L 500 150 Z M 500 140.625 "/>
<path style=" stroke:none;fill-rule:nonzero;fill:rgb(54.509804%,60.784314%,70.588235%);fill-opacity:1;" d="M 15.625 131.25 L 31.25 131.25 L 31.25 140.625 L 15.625 140.625 Z M 15.625 131.25 "/>
<path style=" stroke:none;fill-rule:nonzero;fill:rgb(14.901961%,16.862745%,26.666667%);fill-opacity:1;" d="M 937.5 121.875 L 953.125 121.875 L 953.125 131.25 L 937.5 131.25 Z M 937.5 121.875 "/>
<path style=" stroke:none;fill-rule:nonzero;fill:rgb(14.901961%,16.862745%,26.666667%);fill-opacity:1;" d="M 562.5 121.875 L 578.125 121.875 L 578.125 131.25 L 562.5 131.25 Z M 562.5 121.875 "/>
<path style=" stroke:none;fill-rule:nonzero;fill:rgb(54.509804%,60.784314%,70.588235%);fill-opacity:1;" d="M 375 121.875 L 390.625 121.875 L 390.625 131.25 L 375 131.25 Z M 375 121.875 "/>
<path style=" stroke:none;fill-rule:nonzero;fill:rgb(35.294118%,41.176471%,53.333333%);fill-opacity:1;" d="M 515.625 112.5 L 531.25 112.5 L 531.25 121.875 L 515.625 121.875 Z M 515.625 112.5 "/>
<path style=" stroke:none;fill-rule:nonzero;fill:rgb(54.509804%,60.784314%,70.588235%);fill-opacity:1;" d="M 703.125 103.125 L 718.75 103.125 L 718.75 112.5 L 703.125 112.5 Z M 703.125 103.125 "/>
<path style=" stroke:none;fill-rule:nonzero;fill:rgb(75.294118%,79.607843%,86.27451%);fill-opacity:1;" d="M 656.25 46.875 L 671.875 46.875 L 671.875 56.25 L 656.25 56.25 Z M 656.25 46.875 "/>
<path style=" stroke:none;fill-rule:nonzero;fill:rgb(22.745098%,26.666667%,40%);fill-opacity:1;" d="M 593.75 46.875 L 609.375 46.875 L 609.375 56.25 L 593.75 56.25 Z M 593.75 46.875 "/>
<path style=" stroke:none;fill-rule:nonzero;fill:rgb(35.294118%,41.176471%,53.333333%);fill-opacity:1;" d="M 281.25 46.875 L 296.875 46.875 L 296.875 56.25 L 281.25 56.25 Z M 281.25 46.875 "/>
<path style=" stroke:none;fill-rule:nonzero;fill:rgb(14.901961%,16.862745%,26.666667%);fill-opacity:1;" d="M 687.5 9.375 L 703.125 9.375 L 703.125 18.75 L 687.5 18.75 Z M 687.5 9.375 "/>
<path style=" stroke:none;fill-rule:nonzero;fill:rgb(22.745098%,26.666667%,40%);fill-opacity:1;" d="M 203.125 9.375 L 218.75 9.375 L 218.75 18.75 L 203.125 18.75 Z M 203.125 9.375 "/>
<path style=" stroke:none;fill-rule:nonzero;fill:rgb(75.294118%,79.607843%,86.27451%);fill-opacity:1;" d="M 46.875 9.375 L 62.5 9.375 L 62.5 18.75 L 46.875 18.75 Z M 46.875 9.375 "/>
</g>
</svg>